<svg baseProfile="full" version="1.1" xmlns="http://www.w3.org/2000/svg" viewBox="0 0 2800 1200">
	<g>
		<g transform="translate(0 0)">
			<g transform="translate(0 0)">
				<path d="M 100 28 C 100 -13 0 -13 0 50 C 0 113 100 113 100 72 L 100 48 L 55 48 L 55 72 L 75 72 C 75 90 30 90 30 50 C 30 10 75 5 75 28 Z" fill="#FFA500" transform="matrix(1.0 0 0 0.07573791490310366 0 192.42620850968964)"/>
				<path d="M 0 100 L 33 0 L 66 0 L 100 100 L 75 100 L 66 75 L 33 75 L 25 100 Z M 41 55 L 58 55 L 50 25 Z" fill="#FF0000" transform="matrix(1.0 0 0 1.6662445797632486 0 25.801750533364782)"/>
			</g>
			<g transform="translate(100 0)">
				<path d="M 0 100 L 33 0 L 66 0 L 100 100 L 75 100 L 66 75 L 33 75 L 25 100 Z M 41 55 L 58 55 L 50 25 Z" fill="#FF0000" transform="matrix(1.0 0 0 0.013393378652134642 0 198.66066213478655)"/>
				<path d="M 100 28 C 100 -13 0 -13 0 50 C 0 113 100 113 100 72 L 75 72 C 75 90 30 90 30 50 C 30 10 75 10 75 28 Z" fill="#0000FF" transform="matrix(1.0 0 0 0.022322229298625384 0 196.428439204924)"/>
				<path d="M 100 28 C 100 -13 0 -13 0 50 C 0 113 100 113 100 72 L 100 48 L 55 48 L 55 72 L 75 72 C 75 90 30 90 30 50 C 30 10 75 5 75 28 Z" fill="#FFA500" transform="matrix(1.0 0 0 0.026786757304269285 0 193.74976347449706)"/>
				<path d="M 0 0 L 0 20 L 35 20 L 35 100 L 65 100 L 65 20 L 100 20 L 100 0 Z" fill="#228B22" transform="matrix(1.0 0 0 0.04018003327400539 0 189.73176014709654)"/>
			</g>
			<g transform="translate(200 0)">
				<path d="M 0 100 L 33 0 L 66 0 L 100 100 L 75 100 L 66 75 L 33 75 L 25 100 Z M 41 55 L 58 55 L 50 25 Z" fill="#FF0000" transform="matrix(1.0 0 0 0.08804749021984587 0 191.19525097801542)"/>
				<path d="M 100 28 C 100 -13 0 -13 0 50 C 0 113 100 113 100 72 L 75 72 C 75 90 30 90 30 50 C 30 10 75 10 75 28 Z" fill="#0000FF" transform="matrix(1.0 0 0 0.17609498043969174 0 173.58575293404624)"/>
				<path d="M 100 28 C 100 -13 0 -13 0 50 C 0 113 100 113 100 72 L 100 48 L 55 48 L 55 72 L 75 72 C 75 90 30 90 30 50 C 30 10 75 5 75 28 Z" fill="#FFA500" transform="matrix(1.0 0 0 0.4108878376728587 0 132.49696916676038)"/>
			</g>
			<g transform="translate(300 0)">
				<path d="M 100 28 C 100 -13 0 -13 0 50 C 0 113 100 113 100 72 L 75 72 C 75 90 30 90 30 50 C 30 10 75 10 75 28 Z" fill="#0000FF" transform="matrix(1.0 0 0 2.0 0 0.0)"/>
			</g>
			<g transform="translate(400 0)">
				<path d="M 0 0 L 0 20 L 35 20 L 35 100 L 65 100 L 65 20 L 100 20 L 100 0 Z" fill="#228B22" transform="matrix(1.0 0 0 0.016044162937555815 0 198.39558370624442)"/>
				<path d="M 100 28 C 100 -13 0 -13 0 50 C 0 113 100 113 100 72 L 75 72 C 75 90 30 90 30 50 C 30 10 75 10 75 28 Z" fill="#0000FF" transform="matrix(1.0 0 0 0.06417702076818493 0 191.97788162942592)"/>
				<path d="M 0 100 L 33 0 L 66 0 L 100 100 L 75 100 L 66 75 L 33 75 L 25 100 Z M 41 55 L 58 55 L 50 25 Z" fill="#FF0000" transform="matrix(1.0 0 0 0.09626571566125824 0 182.3513100633001)"/>
				<path d="M 100 28 C 100 -13 0 -13 0 50 C 0 113 100 113 100 72 L 100 48 L 55 48 L 55 72 L 75 72 C 75 90 30 90 30 50 C 30 10 75 5 75 28 Z" fill="#FFA500" transform="matrix(1.0 0 0 0.19253106230455475 0 163.09820383284463)"/>
			</g>
			<g transform="translate(500 0)">
				<path d="M 0 100 L 33 0 L 66 0 L 100 100 L 75 100 L 66 75 L 33 75 L 25 100 Z M 41 55 L 58 55 L 50 25 Z" fill="#FF0000" transform="matrix(1.0 0 0 2.0 0 0.0)"/>
			</g>
			<g transform="translate(600 0)">
				<path d="M 0 0 L 0 20 L 35 20 L 35 100 L 65 100 L 65 20 L 100 20 L 100 0 Z" fill="#228B22" transform="matrix(1.0 0 0 2.0 0 0.0)"/>
			</g>
			<g transform="translate(700 0)">
				<path d="M 0 100 L 33 0 L 66 0 L 100 100 L 75 100 L 66 75 L 33 75 L 25 100 Z M 41 55 L 58 55 L 50 25 Z" fill="#FF0000" transform="matrix(1.0 0 0 2.0 0 0.0)"/>
			</g>
			<g transform="translate(800 0)">
				<path d="M 0 100 L 33 0 L 66 0 L 100 100 L 75 100 L 66 75 L 33 75 L 25 100 Z M 41 55 L 58 55 L 50 25 Z" fill="#FF0000" transform="matrix(1.0 0 0 2.0 0 0.0)"/>
			</g>
			<g transform="translate(900 0)">
				<path d="M 0 0 L 0 20 L 35 20 L 35 100 L 65 100 L 65 20 L 100 20 L 100 0 Z" fill="#228B22" transform="matrix(1.0 0 0 2.0 0 0.0)"/>
			</g>
			<g transform="translate(1000 0)">
				<path d="M 0 100 L 33 0 L 66 0 L 100 100 L 75 100 L 66 75 L 33 75 L 25 100 Z M 41 55 L 58 55 L 50 25 Z" fill="#FF0000" transform="matrix(1.0 0 0 0.0032005625359516317 0 199.67994374640483)"/>
				<path d="M 100 28 C 100 -13 0 -13 0 50 C 0 113 100 113 100 72 L 75 72 C 75 90 30 90 30 50 C 30 10 75 10 75 28 Z" fill="#0000FF" transform="matrix(1.0 0 0 0.0032005625359516317 0 199.35988749280966)"/>
				<path d="M 100 28 C 100 -13 0 -13 0 50 C 0 113 100 113 100 72 L 100 48 L 55 48 L 55 72 L 75 72 C 75 90 30 90 30 50 C 30 10 75 5 75 28 Z" fill="#FFA500" transform="matrix(1.0 0 0 0.0038406868212285793 0 198.9758188106868)"/>
				<path d="M 0 0 L 0 20 L 35 20 L 35 100 L 65 100 L 65 20 L 100 20 L 100 0 Z" fill="#228B22" transform="matrix(1.0 0 0 0.00448079638389725 0 198.5277391722971)"/>
			</g>
			<g transform="translate(1100 0)">
				<path d="M 100 28 C 100 -13 0 -13 0 50 C 0 113 100 113 100 72 L 100 48 L 55 48 L 55 72 L 75 72 C 75 90 30 90 30 50 C 30 10 75 5 75 28 Z" fill="#FFA500" transform="matrix(1.0 0 0 2.0 0 0.0)"/>
			</g>
			<g transform="translate(1200 0)">
				<path d="M 0 0 L 0 20 L 35 20 L 35 100 L 65 100 L 65 20 L 100 20 L 100 0 Z" fill="#228B22" transform="matrix(1.0 0 0 2.0 0 0.0)"/>
			</g>
			<g transform="translate(1300 0)">
				<path d="M 100 28 C 100 -13 0 -13 0 50 C 0 113 100 113 100 72 L 75 72 C 75 90 30 90 30 50 C 30 10 75 10 75 28 Z" fill="#0000FF" transform="matrix(1.0 0 0 0.09082663282448897 0 190.9173367175511)"/>
				<path d="M 100 28 C 100 -13 0 -13 0 50 C 0 113 100 113 100 72 L 100 48 L 55 48 L 55 72 L 75 72 C 75 90 30 90 30 50 C 30 10 75 5 75 28 Z" fill="#FFA500" transform="matrix(1.0 0 0 0.18165326564897794 0 172.75201015265333)"/>
				<path d="M 0 0 L 0 20 L 35 20 L 35 100 L 65 100 L 65 20 L 100 20 L 100 0 Z" fill="#228B22" transform="matrix(1.0 0 0 0.24977337083066195 0 147.77467306958712)"/>
			</g>
			<g transform="translate(1400 0)">
				<path d="M 0 100 L 33 0 L 66 0 L 100 100 L 75 100 L 66 75 L 33 75 L 25 100 Z M 41 55 L 58 55 L 50 25 Z" fill="#FF0000" transform="matrix(1.0 0 0 2.0 0 0.0)"/>
			</g>
			<g transform="translate(1500 0)">
				<path d="M 100 28 C 100 -13 0 -13 0 50 C 0 113 100 113 100 72 L 75 72 C 75 90 30 90 30 50 C 30 10 75 10 75 28 Z" fill="#0000FF" transform="matrix(1.0 0 0 0.23189937502358837 0 176.81006249764116)"/>
				<path d="M 100 28 C 100 -13 0 -13 0 50 C 0 113 100 113 100 72 L 100 48 L 55 48 L 55 72 L 75 72 C 75 90 30 90 30 50 C 30 10 75 5 75 28 Z" fill="#FFA500" transform="matrix(1.0 0 0 1.1015223647174797 0 66.6578260258932)"/>
			</g>
			<g transform="translate(1600 0)">
				<path d="M 100 28 C 100 -13 0 -13 0 50 C 0 113 100 113 100 72 L 75 72 C 75 90 30 90 30 50 C 30 10 75 10 75 28 Z" fill="#0000FF" transform="matrix(1.0 0 0 0.03820948235316398 0 196.1790517646836)"/>
				<path d="M 0 0 L 0 20 L 35 20 L 35 100 L 65 100 L 65 20 L 100 20 L 100 0 Z" fill="#228B22" transform="matrix(1.0 0 0 0.267468134118882 0 169.4322383527954)"/>
				<path d="M 0 100 L 33 0 L 66 0 L 100 100 L 75 100 L 66 75 L 33 75 L 25 100 Z M 41 55 L 58 55 L 50 25 Z" fill="#FF0000" transform="matrix(1.0 0 0 0.5731457505909279 0 112.11766329370262)"/>
			</g>
			<g transform="translate(1700 0)">
				<path d="M 100 28 C 100 -13 0 -13 0 50 C 0 113 100 113 100 72 L 75 72 C 75 90 30 90 30 50 C 30 10 75 10 75 28 Z" fill="#0000FF" transform="matrix(1.0 0 0 2.0 0 0.0)"/>
			</g>
			<g transform="translate(1800 0)">
				<path d="M 0 100 L 33 0 L 66 0 L 100 100 L 75 100 L 66 75 L 33 75 L 25 100 Z M 41 55 L 58 55 L 50 25 Z" fill="#FF0000" transform="matrix(1.0 0 0 2.0 0 0.0)"/>
			</g>
			<g transform="translate(1900 0)">
				<path d="M 0 100 L 33 0 L 66 0 L 100 100 L 75 100 L 66 75 L 33 75 L 25 100 Z M 41 55 L 58 55 L 50 25 Z" fill="#FF0000" transform="matrix(1.0 0 0 2.0 0 0.0)"/>
			</g>
			<g transform="translate(2000 0)">
				<path d="M 100 28 C 100 -13 0 -13 0 50 C 0 113 100 113 100 72 L 75 72 C 75 90 30 90 30 50 C 30 10 75 10 75 28 Z" fill="#0000FF" transform="matrix(1.0 0 0 2.0 0 0.0)"/>
			</g>
			<g transform="translate(2100 0)">
				<path d="M 100 28 C 100 -13 0 -13 0 50 C 0 113 100 113 100 72 L 75 72 C 75 90 30 90 30 50 C 30 10 75 10 75 28 Z" fill="#0000FF" transform="matrix(1.0 0 0 0.13685029359345358 0 186.31497064065465)"/>
				<path d="M 0 100 L 33 0 L 66 0 L 100 100 L 75 100 L 66 75 L 33 75 L 25 100 Z M 41 55 L 58 55 L 50 25 Z" fill="#FF0000" transform="matrix(1.0 0 0 1.4369194269977994 0 42.62302794087472)"/>
			</g>
			<g transform="translate(2200 0)">
				<path d="M 0 100 L 33 0 L 66 0 L 100 100 L 75 100 L 66 75 L 33 75 L 25 100 Z M 41 55 L 58 55 L 50 25 Z" fill="#FF0000" transform="matrix(1.0 0 0 0.01348055856593943 0 198.65194414340607)"/>
				<path d="M 100 28 C 100 -13 0 -13 0 50 C 0 113 100 113 100 72 L 100 48 L 55 48 L 55 72 L 75 72 C 75 90 30 90 30 50 C 30 10 75 5 75 28 Z" fill="#FFA500" transform="matrix(1.0 0 0 0.0674031028844045 0 191.9116338549656)"/>
				<path d="M 100 28 C 100 -13 0 -13 0 50 C 0 113 100 113 100 72 L 75 72 C 75 90 30 90 30 50 C 30 10 75 10 75 28 Z" fill="#0000FF" transform="matrix(1.0 0 0 0.08088397150505128 0 183.82323670446047)"/>
				<path d="M 0 0 L 0 20 L 35 20 L 35 100 L 65 100 L 65 20 L 100 20 L 100 0 Z" fill="#228B22" transform="matrix(1.0 0 0 0.14828707438945576 0 168.9945292655149)"/>
			</g>
			<g transform="translate(2300 0)">
				<path d="M 100 28 C 100 -13 0 -13 0 50 C 0 113 100 113 100 72 L 100 48 L 55 48 L 55 72 L 75 72 C 75 90 30 90 30 50 C 30 10 75 5 75 28 Z" fill="#FFA500" transform="matrix(1.0 0 0 0.11433858604453427 0 188.56614139554657)"/>
				<path d="M 0 100 L 33 0 L 66 0 L 100 100 L 75 100 L 66 75 L 33 75 L 25 100 Z M 41 55 L 58 55 L 50 25 Z" fill="#FF0000" transform="matrix(1.0 0 0 0.13720672402002684 0 174.84546899354388)"/>
				<path d="M 100 28 C 100 -13 0 -13 0 50 C 0 113 100 113 100 72 L 75 72 C 75 90 30 90 30 50 C 30 10 75 10 75 28 Z" fill="#0000FF" transform="matrix(1.0 0 0 0.27441292208182155 0 147.40417678536173)"/>
			</g>
			<g transform="translate(2400 0)">
				<path d="M 0 0 L 0 20 L 35 20 L 35 100 L 65 100 L 65 20 L 100 20 L 100 0 Z" fill="#228B22" transform="matrix(1.0 0 0 0.11244380250745621 0 188.75561974925438)"/>
				<path d="M 100 28 C 100 -13 0 -13 0 50 C 0 113 100 113 100 72 L 100 48 L 55 48 L 55 72 L 75 72 C 75 90 30 90 30 50 C 30 10 75 5 75 28 Z" fill="#FFA500" transform="matrix(1.0 0 0 0.14055459149631375 0 174.70016059962302)"/>
				<path d="M 100 28 C 100 -13 0 -13 0 50 C 0 113 100 113 100 72 L 75 72 C 75 90 30 90 30 50 C 30 10 75 10 75 28 Z" fill="#0000FF" transform="matrix(1.0 0 0 0.3935536320521098 0 135.344797394412)"/>
			</g>
			<g transform="translate(2500 0)">
				<path d="M 0 100 L 33 0 L 66 0 L 100 100 L 75 100 L 66 75 L 33 75 L 25 100 Z M 41 55 L 58 55 L 50 25 Z" fill="#FF0000" transform="matrix(1.0 0 0 0.011793305951491388 0 198.82066940485086)"/>
				<path d="M 0 0 L 0 20 L 35 20 L 35 100 L 65 100 L 65 20 L 100 20 L 100 0 Z" fill="#228B22" transform="matrix(1.0 0 0 0.03537978223220164 0 195.2826911816307)"/>
				<path d="M 100 28 C 100 -13 0 -13 0 50 C 0 113 100 113 100 72 L 100 48 L 55 48 L 55 72 L 75 72 C 75 90 30 90 30 50 C 30 10 75 5 75 28 Z" fill="#FFA500" transform="matrix(1.0 0 0 0.041276367396811085 0 191.15505444194957)"/>
				<path d="M 100 28 C 100 -13 0 -13 0 50 C 0 113 100 113 100 72 L 75 72 C 75 90 30 90 30 50 C 30 10 75 10 75 28 Z" fill="#0000FF" transform="matrix(1.0 0 0 0.047172952561420504 0 186.43775918580752)"/>
			</g>
			<g transform="translate(2600 0)">
				<path d="M 0 0 L 0 20 L 35 20 L 35 100 L 65 100 L 65 20 L 100 20 L 100 0 Z" fill="#228B22" transform="matrix(1.0 0 0 2.0 0 0.0)"/>
			</g>
			<g transform="translate(2700 0)">
				<path d="M 100 28 C 100 -13 0 -13 0 50 C 0 113 100 113 100 72 L 75 72 C 75 90 30 90 30 50 C 30 10 75 10 75 28 Z" fill="#0000FF" transform="matrix(1.0 0 0 0.017872599121060404 0 198.21274008789396)"/>
				<path d="M 100 28 C 100 -13 0 -13 0 50 C 0 113 100 113 100 72 L 100 48 L 55 48 L 55 72 L 75 72 C 75 90 30 90 30 50 C 30 10 75 5 75 28 Z" fill="#FFA500" transform="matrix(1.0 0 0 0.029787573853079636 0 195.233982702586)"/>
				<path d="M 0 0 L 0 20 L 35 20 L 35 100 L 65 100 L 65 20 L 100 20 L 100 0 Z" fill="#228B22" transform="matrix(1.0 0 0 0.029787573853079636 0 192.25522531727802)"/>
				<path d="M 0 100 L 33 0 L 66 0 L 100 100 L 75 100 L 66 75 L 33 75 L 25 100 Z M 41 55 L 58 55 L 50 25 Z" fill="#FF0000" transform="matrix(1.0 0 0 0.059575284729190825 0 186.29769684435894)"/>
			</g>
		</g>
		<g transform="translate(0 200)">
			<g transform="translate(0 0)">
				<path d="M 0 100 L 33 0 L 66 0 L 100 100 L 75 100 L 66 75 L 33 75 L 25 100 Z M 41 55 L 58 55 L 50 25 Z" fill="#FF0000" transform="matrix(1.0 0 0 2.0 0 0.0)"/>
			</g>
			<g transform="translate(100 0)">
				<path d="M 100 28 C 100 -13 0 -13 0 50 C 0 113 100 113 100 72 L 100 48 L 55 48 L 55 72 L 75 72 C 75 90 30 90 30 50 C 30 10 75 5 75 28 Z" fill="#FFA500" transform="matrix(1.0 0 0 0.01795629170597686 0 198.2043708294023)"/>
				<path d="M 0 100 L 33 0 L 66 0 L 100 100 L 75 100 L 66 75 L 33 75 L 25 100 Z M 41 55 L 58 55 L 50 25 Z" fill="#FF0000" transform="matrix(1.0 0 0 0.04489084598095495 0 193.7152862313068)"/>
				<path d="M 0 0 L 0 20 L 35 20 L 35 100 L 65 100 L 65 20 L 100 20 L 100 0 Z" fill="#228B22" transform="matrix(1.0 0 0 0.0628471376869318 0 187.43057246261364)"/>
				<path d="M 100 28 C 100 -13 0 -13 0 50 C 0 113 100 113 100 72 L 75 72 C 75 90 30 90 30 50 C 30 10 75 10 75 28 Z" fill="#0000FF" transform="matrix(1.0 0 0 0.10773775023586114 0 176.6567974390275)"/>
			</g>
			<g transform="translate(200 0)">
				<path d="M 0 0 L 0 20 L 35 20 L 35 100 L 65 100 L 65 20 L 100 20 L 100 0 Z" fill="#228B22" transform="matrix(1.0 0 0 0.035621829099708124 0 196.4378170900292)"/>
				<path d="M 0 100 L 33 0 L 66 0 L 100 100 L 75 100 L 66 75 L 33 75 L 25 100 Z M 41 55 L 58 55 L 50 25 Z" fill="#FF0000" transform="matrix(1.0 0 0 0.04987033845973344 0 191.45078324405586)"/>
				<path d="M 100 28 C 100 -13 0 -13 0 50 C 0 113 100 113 100 72 L 75 72 C 75 90 30 90 30 50 C 30 10 75 10 75 28 Z" fill="#0000FF" transform="matrix(1.0 0 0 0.07124365819941625 0 184.32641742411423)"/>
				<path d="M 100 28 C 100 -13 0 -13 0 50 C 0 113 100 113 100 72 L 100 48 L 55 48 L 55 72 L 75 72 C 75 90 30 90 30 50 C 30 10 75 5 75 28 Z" fill="#FFA500" transform="matrix(1.0 0 0 0.21373060413181885 0 162.95335701093234)"/>
			</g>
			<g transform="translate(300 0)">
				<path d="M 100 28 C 100 -13 0 -13 0 50 C 0 113 100 113 100 72 L 75 72 C 75 90 30 90 30 50 C 30 10 75 10 75 28 Z" fill="#0000FF" transform="matrix(1.0 0 0 2.0 0 0.0)"/>
			</g>
			<g transform="translate(400 0)">
				<path d="M 100 28 C 100 -13 0 -13 0 50 C 0 113 100 113 100 72 L 75 72 C 75 90 30 90 30 50 C 30 10 75 10 75 28 Z" fill="#0000FF" transform="matrix(1.0 0 0 0.020673395603196813 0 197.93266043968032)"/>
				<path d="M 0 0 L 0 20 L 35 20 L 35 100 L 65 100 L 65 20 L 100 20 L 100 0 Z" fill="#228B22" transform="matrix(1.0 0 0 0.020673395603196813 0 195.86532087936064)"/>
				<path d="M 0 100 L 33 0 L 66 0 L 100 100 L 75 100 L 66 75 L 33 75 L 25 100 Z M 41 55 L 58 55 L 50 25 Z" fill="#FF0000" transform="matrix(1.0 0 0 0.03617850949419732 0 192.2474699299409)"/>
				<path d="M 100 28 C 100 -13 0 -13 0 50 C 0 113 100 113 100 72 L 100 48 L 55 48 L 55 72 L 75 72 C 75 90 30 90 30 50 C 30 10 75 5 75 28 Z" fill="#FFA500" transform="matrix(1.0 0 0 0.056851905097394136 0 186.5622794202015)"/>
			</g>
			<g transform="translate(500 0)">
				<path d="M 0 100 L 33 0 L 66 0 L 100 100 L 75 100 L 66 75 L 33 75 L 25 100 Z M 41 55 L 58 55 L 50 25 Z" fill="#FF0000" transform="matrix(1.0 0 0 2.0 0 0.0)"/>
			</g>
			<g transform="translate(600 0)">
				<path d="M 0 0 L 0 20 L 35 20 L 35 100 L 65 100 L 65 20 L 100 20 L 100 0 Z" fill="#228B22" transform="matrix(1.0 0 0 2.0 0 0.0)"/>
			</g>
			<g transform="translate(700 0)">
				<path d="M 0 100 L 33 0 L 66 0 L 100 100 L 75 100 L 66 75 L 33 75 L 25 100 Z M 41 55 L 58 55 L 50 25 Z" fill="#FF0000" transform="matrix(1.0 0 0 2.0 0 0.0)"/>
			</g>
			<g transform="translate(800 0)">
				<path d="M 100 28 C 100 -13 0 -13 0 50 C 0 113 100 113 100 72 L 75 72 C 75 90 30 90 30 50 C 30 10 75 10 75 28 Z" fill="#0000FF" transform="matrix(1.0 0 0 0.035825414747529455 0 196.41745852524704)"/>
				<path d="M 0 100 L 33 0 L 66 0 L 100 100 L 75 100 L 66 75 L 33 75 L 25 100 Z M 41 55 L 58 55 L 50 25 Z" fill="#FF0000" transform="matrix(1.0 0 0 1.827073797333457 0 13.710078791901338)"/>
			</g>
			<g transform="translate(900 0)">
				<path d="M 0 0 L 0 20 L 35 20 L 35 100 L 65 100 L 65 20 L 100 20 L 100 0 Z" fill="#228B22" transform="matrix(1.0 0 0 2.0 0 0.0)"/>
			</g>
			<g transform="translate(1000 0)">
				<path d="M 0 100 L 33 0 L 66 0 L 100 100 L 75 100 L 66 75 L 33 75 L 25 100 Z M 41 55 L 58 55 L 50 25 Z" fill="#FF0000" transform="matrix(1.0 0 0 0.014827574889287176 0 198.5172425110713)"/>
				<path d="M 100 28 C 100 -13 0 -13 0 50 C 0 113 100 113 100 72 L 75 72 C 75 90 30 90 30 50 C 30 10 75 10 75 28 Z" fill="#0000FF" transform="matrix(1.0 0 0 0.027183737374269018 0 195.7988687736444)"/>
				<path d="M 0 0 L 0 20 L 35 20 L 35 100 L 65 100 L 65 20 L 100 20 L 100 0 Z" fill="#228B22" transform="matrix(1.0 0 0 0.03459758907152295 0 192.3391098664921)"/>
				<path d="M 100 28 C 100 -13 0 -13 0 50 C 0 113 100 113 100 72 L 100 48 L 55 48 L 55 72 L 75 72 C 75 90 30 90 30 50 C 30 10 75 5 75 28 Z" fill="#FFA500" transform="matrix(1.0 0 0 0.05189631935467408 0 187.14947793102468)"/>
			</g>
			<g transform="translate(1100 0)">
				<path d="M 100 28 C 100 -13 0 -13 0 50 C 0 113 100 113 100 72 L 100 48 L 55 48 L 55 72 L 75 72 C 75 90 30 90 30 50 C 30 10 75 5 75 28 Z" fill="#FFA500" transform="matrix(1.0 0 0 2.0 0 0.0)"/>
			</g>
			<g transform="translate(1200 0)">
				<path d="M 0 0 L 0 20 L 35 20 L 35 100 L 65 100 L 65 20 L 100 20 L 100 0 Z" fill="#228B22" transform="matrix(1.0 0 0 2.0 0 0.0)"/>
			</g>
			<g transform="translate(1300 0)">
				<path d="M 0 100 L 33 0 L 66 0 L 100 100 L 75 100 L 66 75 L 33 75 L 25 100 Z M 41 55 L 58 55 L 50 25 Z" fill="#FF0000" transform="matrix(1.0 0 0 0.011273724635971762 0 198.87262753640283)"/>
				<path d="M 100 28 C 100 -13 0 -13 0 50 C 0 113 100 113 100 72 L 75 72 C 75 90 30 90 30 50 C 30 10 75 10 75 28 Z" fill="#0000FF" transform="matrix(1.0 0 0 0.06764146847586104 0 192.1084806888167)"/>
				<path d="M 100 28 C 100 -13 0 -13 0 50 C 0 113 100 113 100 72 L 100 48 L 55 48 L 55 72 L 75 72 C 75 90 30 90 30 50 C 30 10 75 5 75 28 Z" fill="#FFA500" transform="matrix(1.0 0 0 0.08455205542981867 0 183.65327514583487)"/>
				<path d="M 0 0 L 0 20 L 35 20 L 35 100 L 65 100 L 65 20 L 100 20 L 100 0 Z" fill="#228B22" transform="matrix(1.0 0 0 0.12964636774705934 0 170.68863837112892)"/>
			</g>
			<g transform="translate(1400 0)">
				<path d="M 0 100 L 33 0 L 66 0 L 100 100 L 75 100 L 66 75 L 33 75 L 25 100 Z M 41 55 L 58 55 L 50 25 Z" fill="#FF0000" transform="matrix(1.0 0 0 2.0 0 0.0)"/>
			</g>
			<g transform="translate(1500 0)">
				<path d="M 100 28 C 100 -13 0 -13 0 50 C 0 113 100 113 100 72 L 75 72 C 75 90 30 90 30 50 C 30 10 75 10 75 28 Z" fill="#0000FF" transform="matrix(1.0 0 0 0.21240258508881213 0 178.7597414911188)"/>
				<path d="M 100 28 C 100 -13 0 -13 0 50 C 0 113 100 113 100 72 L 100 48 L 55 48 L 55 72 L 75 72 C 75 90 30 90 30 50 C 30 10 75 5 75 28 Z" fill="#FFA500" transform="matrix(1.0 0 0 1.1682155986066505 0 61.938181630453755)"/>
			</g>
			<g transform="translate(1600 0)">
				<path d="M 100 28 C 100 -13 0 -13 0 50 C 0 113 100 113 100 72 L 75 72 C 75 90 30 90 30 50 C 30 10 75 10 75 28 Z" fill="#0000FF" transform="matrix(1.0 0 0 0.05322252199211432 0 194.67774780078858)"/>
				<path d="M 100 28 C 100 -13 0 -13 0 50 C 0 113 100 113 100 72 L 100 48 L 55 48 L 55 72 L 75 72 C 75 90 30 90 30 50 C 30 10 75 5 75 28 Z" fill="#FFA500" transform="matrix(1.0 0 0 0.05322252199211432 0 189.35549560157713)"/>
				<path d="M 0 0 L 0 20 L 35 20 L 35 100 L 65 100 L 65 20 L 100 20 L 100 0 Z" fill="#228B22" transform="matrix(1.0 0 0 0.09313924051283061 0 180.04157155029407)"/>
				<path d="M 0 100 L 33 0 L 66 0 L 100 100 L 75 100 L 66 75 L 33 75 L 25 100 Z M 41 55 L 58 55 L 50 25 Z" fill="#FF0000" transform="matrix(1.0 0 0 0.4923085014004268 0 130.8107214102514)"/>
			</g>
			<g transform="translate(1700 0)">
				<path d="M 100 28 C 100 -13 0 -13 0 50 C 0 113 100 113 100 72 L 75 72 C 75 90 30 90 30 50 C 30 10 75 10 75 28 Z" fill="#0000FF" transform="matrix(1.0 0 0 2.0 0 0.0)"/>
			</g>
			<g transform="translate(1800 0)">
				<path d="M 0 100 L 33 0 L 66 0 L 100 100 L 75 100 L 66 75 L 33 75 L 25 100 Z M 41 55 L 58 55 L 50 25 Z" fill="#FF0000" transform="matrix(1.0 0 0 2.0 0 0.0)"/>
			</g>
			<g transform="translate(1900 0)">
				<path d="M 0 100 L 33 0 L 66 0 L 100 100 L 75 100 L 66 75 L 33 75 L 25 100 Z M 41 55 L 58 55 L 50 25 Z" fill="#FF0000" transform="matrix(1.0 0 0 2.0 0 0.0)"/>
			</g>
			<g transform="translate(2000 0)">
				<path d="M 0 0 L 0 20 L 35 20 L 35 100 L 65 100 L 65 20 L 100 20 L 100 0 Z" fill="#228B22" transform="matrix(1.0 0 0 0.1483959942724734 0 185.16040057275265)"/>
				<path d="M 100 28 C 100 -13 0 -13 0 50 C 0 113 100 113 100 72 L 75 72 C 75 90 30 90 30 50 C 30 10 75 10 75 28 Z" fill="#0000FF" transform="matrix(1.0 0 0 1.394919876855856 0 45.66841288716705)"/>
			</g>
			<g transform="translate(2100 0)">
				<path d="M 100 28 C 100 -13 0 -13 0 50 C 0 113 100 113 100 72 L 75 72 C 75 90 30 90 30 50 C 30 10 75 10 75 28 Z" fill="#0000FF" transform="matrix(1.0 0 0 0.035825414747529455 0 196.41745852524704)"/>
				<path d="M 0 100 L 33 0 L 66 0 L 100 100 L 75 100 L 66 75 L 33 75 L 25 100 Z M 41 55 L 58 55 L 50 25 Z" fill="#FF0000" transform="matrix(1.0 0 0 1.827073797333457 0 13.710078791901338)"/>
			</g>
			<g transform="translate(2200 0)">
				<path d="M 100 28 C 100 -13 0 -13 0 50 C 0 113 100 113 100 72 L 75 72 C 75 90 30 90 30 50 C 30 10 75 10 75 28 Z" fill="#0000FF" transform="matrix(1.0 0 0 0.013354172438415699 0 198.66458275615844)"/>
				<path d="M 0 100 L 33 0 L 66 0 L 100 100 L 75 100 L 66 75 L 33 75 L 25 100 Z M 41 55 L 58 55 L 50 25 Z" fill="#FF0000" transform="matrix(1.0 0 0 0.019077474228628655 0 196.75683533329556)"/>
				<path d="M 100 28 C 100 -13 0 -13 0 50 C 0 113 100 113 100 72 L 100 48 L 55 48 L 55 72 L 75 72 C 75 90 30 90 30 50 C 30 10 75 5 75 28 Z" fill="#FFA500" transform="matrix(1.0 0 0 0.030523879403640035 0 193.70444739293157)"/>
				<path d="M 0 0 L 0 20 L 35 20 L 35 100 L 65 100 L 65 20 L 100 20 L 100 0 Z" fill="#228B22" transform="matrix(1.0 0 0 0.03624718119385299 0 190.07972927354626)"/>
			</g>
			<g transform="translate(2300 0)">
				<path d="M 100 28 C 100 -13 0 -13 0 50 C 0 113 100 113 100 72 L 100 48 L 55 48 L 55 72 L 75 72 C 75 90 30 90 30 50 C 30 10 75 5 75 28 Z" fill="#FFA500" transform="matrix(1.0 0 0 0.01095829549037585 0 198.90417045096243)"/>
				<path d="M 0 0 L 0 20 L 35 20 L 35 100 L 65 100 L 65 20 L 100 20 L 100 0 Z" fill="#228B22" transform="matrix(1.0 0 0 0.08766522427395157 0 190.13764802356727)"/>
				<path d="M 0 100 L 33 0 L 66 0 L 100 100 L 75 100 L 66 75 L 33 75 L 25 100 Z M 41 55 L 58 55 L 50 25 Z" fill="#FF0000" transform="matrix(1.0 0 0 0.1205395409205515 0 178.0836939315121)"/>
				<path d="M 100 28 C 100 -13 0 -13 0 50 C 0 113 100 113 100 72 L 75 72 C 75 90 30 90 30 50 C 30 10 75 10 75 28 Z" fill="#0000FF" transform="matrix(1.0 0 0 0.3506614669203339 0 143.01754723947872)"/>
			</g>
			<g transform="translate(2400 0)">
				<path d="M 0 0 L 0 20 L 35 20 L 35 100 L 65 100 L 65 20 L 100 20 L 100 0 Z" fill="#228B22" transform="matrix(1.0 0 0 0.034990451028854404 0 196.50095489711455)"/>
				<path d="M 100 28 C 100 -13 0 -13 0 50 C 0 113 100 113 100 72 L 100 48 L 55 48 L 55 72 L 75 72 C 75 90 30 90 30 50 C 30 10 75 5 75 28 Z" fill="#FFA500" transform="matrix(1.0 0 0 0.05598457608612366 0 190.9024972885022)"/>
				<path d="M 0 100 L 33 0 L 66 0 L 100 100 L 75 100 L 66 75 L 33 75 L 25 100 Z M 41 55 L 58 55 L 50 25 Z" fill="#FF0000" transform="matrix(1.0 0 0 0.06298273907191623 0 184.60422338131056)"/>
				<path d="M 100 28 C 100 -13 0 -13 0 50 C 0 113 100 113 100 72 L 75 72 C 75 90 30 90 30 50 C 30 10 75 10 75 28 Z" fill="#0000FF" transform="matrix(1.0 0 0 0.20994234227301792 0 163.6099891540088)"/>
			</g>
			<g transform="translate(2500 0)">
				<path d="M 100 28 C 100 -13 0 -13 0 50 C 0 113 100 113 100 72 L 75 72 C 75 90 30 90 30 50 C 30 10 75 10 75 28 Z" fill="#0000FF" transform="matrix(1.0 0 0 0.017359813625080482 0 198.26401863749194)"/>
				<path d="M 0 0 L 0 20 L 35 20 L 35 100 L 65 100 L 65 20 L 100 20 L 100 0 Z" fill="#228B22" transform="matrix(1.0 0 0 0.038191445541758795 0 194.44487408331608)"/>
				<path d="M 0 100 L 33 0 L 66 0 L 100 100 L 75 100 L 66 75 L 33 75 L 25 100 Z M 41 55 L 58 55 L 50 25 Z" fill="#FF0000" transform="matrix(1.0 0 0 0.04513544320850012 0 189.93132976246605)"/>
				<path d="M 100 28 C 100 -13 0 -13 0 50 C 0 113 100 113 100 72 L 100 48 L 55 48 L 55 72 L 75 72 C 75 90 30 90 30 50 C 30 10 75 5 75 28 Z" fill="#FFA500" transform="matrix(1.0 0 0 0.07985507045866108 0 181.94582271659996)"/>
			</g>
			<g transform="translate(2600 0)">
				<path d="M 0 0 L 0 20 L 35 20 L 35 100 L 65 100 L 65 20 L 100 20 L 100 0 Z" fill="#228B22" transform="matrix(1.0 0 0 2.0 0 0.0)"/>
			</g>
		</g>
		<g transform="translate(0 400)">
			<g transform="translate(0 0)">
				<path d="M 0 100 L 33 0 L 66 0 L 100 100 L 75 100 L 66 75 L 33 75 L 25 100 Z M 41 55 L 58 55 L 50 25 Z" fill="#FF0000" transform="matrix(1.0 0 0 2.0 0 0.0)"/>
			</g>
			<g transform="translate(100 0)">
				<path d="M 100 28 C 100 -13 0 -13 0 50 C 0 113 100 113 100 72 L 100 48 L 55 48 L 55 72 L 75 72 C 75 90 30 90 30 50 C 30 10 75 5 75 28 Z" fill="#FFA500" transform="matrix(1.0 0 0 0.01804078149063684 0 198.19592185093632)"/>
				<path d="M 0 100 L 33 0 L 66 0 L 100 100 L 75 100 L 66 75 L 33 75 L 25 100 Z M 41 55 L 58 55 L 50 25 Z" fill="#FF0000" transform="matrix(1.0 0 0 0.03608156298127368 0 194.58776555280895)"/>
				<path d="M 0 0 L 0 20 L 35 20 L 35 100 L 65 100 L 65 20 L 100 20 L 100 0 Z" fill="#228B22" transform="matrix(1.0 0 0 0.06855479935991957 0 187.732285616817)"/>
				<path d="M 100 28 C 100 -13 0 -13 0 50 C 0 113 100 113 100 72 L 75 72 C 75 90 30 90 30 50 C 30 10 75 10 75 28 Z" fill="#0000FF" transform="matrix(1.0 0 0 0.09020369457255867 0 178.71191615956113)"/>
			</g>
			<g transform="translate(200 0)">
				<path d="M 0 100 L 33 0 L 66 0 L 100 100 L 75 100 L 66 75 L 33 75 L 25 100 Z M 41 55 L 58 55 L 50 25 Z" fill="#FF0000" transform="matrix(1.0 0 0 0.03687750061659185 0 196.3122499383408)"/>
				<path d="M 0 0 L 0 20 L 35 20 L 35 100 L 65 100 L 65 20 L 100 20 L 100 0 Z" fill="#228B22" transform="matrix(1.0 0 0 0.044252913709252446 0 191.88695856741558)"/>
				<path d="M 100 28 C 100 -13 0 -13 0 50 C 0 113 100 113 100 72 L 75 72 C 75 90 30 90 30 50 C 30 10 75 10 75 28 Z" fill="#0000FF" transform="matrix(1.0 0 0 0.09588124051116549 0 182.29883451629902)"/>
				<path d="M 100 28 C 100 -13 0 -13 0 50 C 0 113 100 113 100 72 L 100 48 L 55 48 L 55 72 L 75 72 C 75 90 30 90 30 50 C 30 10 75 5 75 28 Z" fill="#FFA500" transform="matrix(1.0 0 0 0.25814163400956525 0 156.4846711153425)"/>
			</g>
			<g transform="translate(300 0)">
				<path d="M 100 28 C 100 -13 0 -13 0 50 C 0 113 100 113 100 72 L 75 72 C 75 90 30 90 30 50 C 30 10 75 10 75 28 Z" fill="#0000FF" transform="matrix(1.0 0 0 2.0 0 0.0)"/>
			</g>
			<g transform="translate(400 0)">
				<path d="M 0 0 L 0 20 L 35 20 L 35 100 L 65 100 L 65 20 L 100 20 L 100 0 Z" fill="#228B22" transform="matrix(1.0 0 0 0.02175344682784563 0 197.82465531721544)"/>
				<path d="M 100 28 C 100 -13 0 -13 0 50 C 0 113 100 113 100 72 L 75 72 C 75 90 30 90 30 50 C 30 10 75 10 75 28 Z" fill="#0000FF" transform="matrix(1.0 0 0 0.02991108965824466 0 194.83354635139096)"/>
				<path d="M 0 100 L 33 0 L 66 0 L 100 100 L 75 100 L 66 75 L 33 75 L 25 100 Z M 41 55 L 58 55 L 50 25 Z" fill="#FF0000" transform="matrix(1.0 0 0 0.0353494112572233 0 191.29860522566864)"/>
				<path d="M 100 28 C 100 -13 0 -13 0 50 C 0 113 100 113 100 72 L 100 48 L 55 48 L 55 72 L 75 72 C 75 90 30 90 30 50 C 30 10 75 5 75 28 Z" fill="#FFA500" transform="matrix(1.0 0 0 0.07341798331393593 0 183.95680689427505)"/>
			</g>
			<g transform="translate(500 0)">
				<path d="M 0 100 L 33 0 L 66 0 L 100 100 L 75 100 L 66 75 L 33 75 L 25 100 Z M 41 55 L 58 55 L 50 25 Z" fill="#FF0000" transform="matrix(1.0 0 0 2.0 0 0.0)"/>
			</g>
			<g transform="translate(600 0)">
				<path d="M 0 0 L 0 20 L 35 20 L 35 100 L 65 100 L 65 20 L 100 20 L 100 0 Z" fill="#228B22" transform="matrix(1.0 0 0 2.0 0 0.0)"/>
			</g>
			<g transform="translate(700 0)">
				<path d="M 0 100 L 33 0 L 66 0 L 100 100 L 75 100 L 66 75 L 33 75 L 25 100 Z M 41 55 L 58 55 L 50 25 Z" fill="#FF0000" transform="matrix(1.0 0 0 2.0 0 0.0)"/>
			</g>
			<g transform="translate(800 0)">
				<path d="M 100 28 C 100 -13 0 -13 0 50 C 0 113 100 113 100 72 L 75 72 C 75 90 30 90 30 50 C 30 10 75 10 75 28 Z" fill="#0000FF" transform="matrix(1.0 0 0 0.03179718883764556 0 196.82028111623544)"/>
				<path d="M 0 100 L 33 0 L 66 0 L 100 100 L 75 100 L 66 75 L 33 75 L 25 100 Z M 41 55 L 58 55 L 50 25 Z" fill="#FF0000" transform="matrix(1.0 0 0 1.8442538370426755 0 12.39489741196789)"/>
			</g>
			<g transform="translate(900 0)">
				<path d="M 0 0 L 0 20 L 35 20 L 35 100 L 65 100 L 65 20 L 100 20 L 100 0 Z" fill="#228B22" transform="matrix(1.0 0 0 2.0 0 0.0)"/>
			</g>
			<g transform="translate(1000 0)">
				<path d="M 0 100 L 33 0 L 66 0 L 100 100 L 75 100 L 66 75 L 33 75 L 25 100 Z M 41 55 L 58 55 L 50 25 Z" fill="#FF0000" transform="matrix(1.0 0 0 0.019681727505993403 0 198.03182724940066)"/>
				<path d="M 0 0 L 0 20 L 35 20 L 35 100 L 65 100 L 65 20 L 100 20 L 100 0 Z" fill="#228B22" transform="matrix(1.0 0 0 0.03936316470817534 0 194.09551077858313)"/>
				<path d="M 100 28 C 100 -13 0 -13 0 50 C 0 113 100 113 100 72 L 75 72 C 75 90 30 90 30 50 C 30 10 75 10 75 28 Z" fill="#0000FF" transform="matrix(1.0 0 0 0.10824877552343505 0 183.27063322623962)"/>
				<path d="M 100 28 C 100 -13 0 -13 0 50 C 0 113 100 113 100 72 L 100 48 L 55 48 L 55 72 L 75 72 C 75 90 30 90 30 50 C 30 10 75 5 75 28 Z" fill="#FFA500" transform="matrix(1.0 0 0 0.123010143728883 0 170.96961885335134)"/>
			</g>
			<g transform="translate(1100 0)">
				<path d="M 100 28 C 100 -13 0 -13 0 50 C 0 113 100 113 100 72 L 100 48 L 55 48 L 55 72 L 75 72 C 75 90 30 90 30 50 C 30 10 75 5 75 28 Z" fill="#FFA500" transform="matrix(1.0 0 0 2.0 0 0.0)"/>
			</g>
			<g transform="translate(1200 0)">
				<path d="M 0 0 L 0 20 L 35 20 L 35 100 L 65 100 L 65 20 L 100 20 L 100 0 Z" fill="#228B22" transform="matrix(1.0 0 0 2.0 0 0.0)"/>
			</g>
			<g transform="translate(1300 0)">
				<path d="M 0 100 L 33 0 L 66 0 L 100 100 L 75 100 L 66 75 L 33 75 L 25 100 Z M 41 55 L 58 55 L 50 25 Z" fill="#FF0000" transform="matrix(1.0 0 0 0.027832531785593376 0 197.21674682144067)"/>
				<path d="M 100 28 C 100 -13 0 -13 0 50 C 0 113 100 113 100 72 L 75 72 C 75 90 30 90 30 50 C 30 10 75 10 75 28 Z" fill="#0000FF" transform="matrix(1.0 0 0 0.027832531785593376 0 194.43349364288133)"/>
				<path d="M 100 28 C 100 -13 0 -13 0 50 C 0 113 100 113 100 72 L 100 48 L 55 48 L 55 72 L 75 72 C 75 90 30 90 30 50 C 30 10 75 5 75 28 Z" fill="#FFA500" transform="matrix(1.0 0 0 0.10205243408961939 0 184.2282502339194)"/>
				<path d="M 0 0 L 0 20 L 35 20 L 35 100 L 65 100 L 65 20 L 100 20 L 100 0 Z" fill="#228B22" transform="matrix(1.0 0 0 0.11596883682558333 0 172.63136655136105)"/>
			</g>
			<g transform="translate(1400 0)">
				<path d="M 0 100 L 33 0 L 66 0 L 100 100 L 75 100 L 66 75 L 33 75 L 25 100 Z M 41 55 L 58 55 L 50 25 Z" fill="#FF0000" transform="matrix(1.0 0 0 2.0 0 0.0)"/>
			</g>
			<g transform="translate(1500 0)">
				<path d="M 100 28 C 100 -13 0 -13 0 50 C 0 113 100 113 100 72 L 75 72 C 75 90 30 90 30 50 C 30 10 75 10 75 28 Z" fill="#0000FF" transform="matrix(1.0 0 0 0.17494645280391874 0 182.50535471960814)"/>
				<path d="M 100 28 C 100 -13 0 -13 0 50 C 0 113 100 113 100 72 L 100 48 L 55 48 L 55 72 L 75 72 C 75 90 30 90 30 50 C 30 10 75 5 75 28 Z" fill="#FFA500" transform="matrix(1.0 0 0 1.2996030634288342 0 52.54504837672471)"/>
			</g>
			<g transform="translate(1600 0)">
				<path d="M 100 28 C 100 -13 0 -13 0 50 C 0 113 100 113 100 72 L 75 72 C 75 90 30 90 30 50 C 30 10 75 10 75 28 Z" fill="#0000FF" transform="matrix(1.0 0 0 0.010855123348875055 0 198.9144876651125)"/>
				<path d="M 100 28 C 100 -13 0 -13 0 50 C 0 113 100 113 100 72 L 100 48 L 55 48 L 55 72 L 75 72 C 75 90 30 90 30 50 C 30 10 75 5 75 28 Z" fill="#FFA500" transform="matrix(1.0 0 0 0.06513138055129203 0 192.4013496099833)"/>
				<path d="M 0 0 L 0 20 L 35 20 L 35 100 L 65 100 L 65 20 L 100 20 L 100 0 Z" fill="#228B22" transform="matrix(1.0 0 0 0.16282813114920924 0 176.11853649506236)"/>
				<path d="M 0 100 L 33 0 L 66 0 L 100 100 L 75 100 L 66 75 L 33 75 L 25 100 Z M 41 55 L 58 55 L 50 25 Z" fill="#FF0000" transform="matrix(1.0 0 0 0.4016434066566273 0 135.95419582939962)"/>
			</g>
			<g transform="translate(1700 0)">
				<path d="M 100 28 C 100 -13 0 -13 0 50 C 0 113 100 113 100 72 L 75 72 C 75 90 30 90 30 50 C 30 10 75 10 75 28 Z" fill="#0000FF" transform="matrix(1.0 0 0 2.0 0 0.0)"/>
			</g>
			<g transform="translate(1800 0)">
				<path d="M 0 100 L 33 0 L 66 0 L 100 100 L 75 100 L 66 75 L 33 75 L 25 100 Z M 41 55 L 58 55 L 50 25 Z" fill="#FF0000" transform="matrix(1.0 0 0 2.0 0 0.0)"/>
			</g>
			<g transform="translate(1900 0)">
				<path d="M 0 100 L 33 0 L 66 0 L 100 100 L 75 100 L 66 75 L 33 75 L 25 100 Z M 41 55 L 58 55 L 50 25 Z" fill="#FF0000" transform="matrix(1.0 0 0 2.0 0 0.0)"/>
			</g>
			<g transform="translate(2000 0)">
				<path d="M 0 0 L 0 20 L 35 20 L 35 100 L 65 100 L 65 20 L 100 20 L 100 0 Z" fill="#228B22" transform="matrix(1.0 0 0 0.11134652631794474 0 188.86534736820553)"/>
				<path d="M 100 28 C 100 -13 0 -13 0 50 C 0 113 100 113 100 72 L 75 72 C 75 90 30 90 30 50 C 30 10 75 10 75 28 Z" fill="#0000FF" transform="matrix(1.0 0 0 1.531005293348777 0 35.76481803332783)"/>
			</g>
			<g transform="translate(2100 0)">
				<path d="M 0 100 L 33 0 L 66 0 L 100 100 L 75 100 L 66 75 L 33 75 L 25 100 Z M 41 55 L 58 55 L 50 25 Z" fill="#FF0000" transform="matrix(1.0 0 0 2.0 0 0.0)"/>
			</g>
			<g transform="translate(2200 0)">
				<path d="M 0 100 L 33 0 L 66 0 L 100 100 L 75 100 L 66 75 L 33 75 L 25 100 Z M 41 55 L 58 55 L 50 25 Z" fill="#FF0000" transform="matrix(1.0 0 0 0.008871900706289022 0 199.1128099293711)"/>
				<path d="M 100 28 C 100 -13 0 -13 0 50 C 0 113 100 113 100 72 L 75 72 C 75 90 30 90 30 50 C 30 10 75 10 75 28 Z" fill="#0000FF" transform="matrix(1.0 0 0 0.010646259909919787 0 198.0481839383791)"/>
				<path d="M 0 0 L 0 20 L 35 20 L 35 100 L 65 100 L 65 20 L 100 20 L 100 0 Z" fill="#228B22" transform="matrix(1.0 0 0 0.015082210263064298 0 196.5399629120727)"/>
				<path d="M 100 28 C 100 -13 0 -13 0 50 C 0 113 100 113 100 72 L 100 48 L 55 48 L 55 72 L 75 72 C 75 90 30 90 30 50 C 30 10 75 5 75 28 Z" fill="#FFA500" transform="matrix(1.0 0 0 0.017743749068510443 0 194.76558800522164)"/>
			</g>
			<g transform="translate(2300 0)">
				<path d="M 0 0 L 0 20 L 35 20 L 35 100 L 65 100 L 65 20 L 100 20 L 100 0 Z" fill="#228B22" transform="matrix(1.0 0 0 0.024457759967558713 0 197.55422400324412)"/>
				<path d="M 100 28 C 100 -13 0 -13 0 50 C 0 113 100 113 100 72 L 100 48 L 55 48 L 55 72 L 75 72 C 75 90 30 90 30 50 C 30 10 75 5 75 28 Z" fill="#FFA500" transform="matrix(1.0 0 0 0.07337376090961789 0 190.21684791228233)"/>
				<path d="M 0 100 L 33 0 L 66 0 L 100 100 L 75 100 L 66 75 L 33 75 L 25 100 Z M 41 55 L 58 55 L 50 25 Z" fill="#FF0000" transform="matrix(1.0 0 0 0.08967941522826545 0 181.24890638945578)"/>
				<path d="M 100 28 C 100 -13 0 -13 0 50 C 0 113 100 113 100 72 L 75 72 C 75 90 30 90 30 50 C 30 10 75 10 75 28 Z" fill="#0000FF" transform="matrix(1.0 0 0 0.29349552464541323 0 151.89935392491446)"/>
			</g>
			<g transform="translate(2400 0)">
				<path d="M 100 28 C 100 -13 0 -13 0 50 C 0 113 100 113 100 72 L 100 48 L 55 48 L 55 72 L 75 72 C 75 90 30 90 30 50 C 30 10 75 5 75 28 Z" fill="#FFA500" transform="matrix(1.0 0 0 0.0515269599857996 0 194.84730400142004)"/>
				<path d="M 0 0 L 0 20 L 35 20 L 35 100 L 65 100 L 65 20 L 100 20 L 100 0 Z" fill="#228B22" transform="matrix(1.0 0 0 0.0515269599857996 0 189.69460800284008)"/>
				<path d="M 0 100 L 33 0 L 66 0 L 100 100 L 75 100 L 66 75 L 33 75 L 25 100 Z M 41 55 L 58 55 L 50 25 Z" fill="#FF0000" transform="matrix(1.0 0 0 0.07729018663802392 0 181.96558933903768)"/>
				<path d="M 100 28 C 100 -13 0 -13 0 50 C 0 113 100 113 100 72 L 75 72 C 75 90 30 90 30 50 C 30 10 75 10 75 28 Z" fill="#0000FF" transform="matrix(1.0 0 0 0.3263372443496138 0 149.33186490407633)"/>
			</g>
			<g transform="translate(2500 0)">
				<path d="M 100 28 C 100 -13 0 -13 0 50 C 0 113 100 113 100 72 L 75 72 C 75 90 30 90 30 50 C 30 10 75 10 75 28 Z" fill="#0000FF" transform="matrix(1.0 0 0 0.006797908800991077 0 199.32020911990088)"/>
				<path d="M 0 100 L 33 0 L 66 0 L 100 100 L 75 100 L 66 75 L 33 75 L 25 100 Z M 41 55 L 58 55 L 50 25 Z" fill="#FF0000" transform="matrix(1.0 0 0 0.008837257376758625 0 198.43648338222502)"/>
				<path d="M 100 28 C 100 -13 0 -13 0 50 C 0 113 100 113 100 72 L 100 48 L 55 48 L 55 72 L 75 72 C 75 90 30 90 30 50 C 30 10 75 5 75 28 Z" fill="#FFA500" transform="matrix(1.0 0 0 0.012236211777254162 0 197.2128622044996)"/>
				<path d="M 0 0 L 0 20 L 35 20 L 35 100 L 65 100 L 65 20 L 100 20 L 100 0 Z" fill="#228B22" transform="matrix(1.0 0 0 0.012236211777254162 0 195.9892410267742)"/>
			</g>
			<g transform="translate(2600 0)">
				<path d="M 0 0 L 0 20 L 35 20 L 35 100 L 65 100 L 65 20 L 100 20 L 100 0 Z" fill="#228B22" transform="matrix(1.0 0 0 2.0 0 0.0)"/>
			</g>
		</g>
		<g transform="translate(0 600)">
			<g transform="translate(0 0)">
				<path d="M 0 100 L 33 0 L 66 0 L 100 100 L 75 100 L 66 75 L 33 75 L 25 100 Z M 41 55 L 58 55 L 50 25 Z" fill="#FF0000" transform="matrix(1.0 0 0 2.0 0 0.0)"/>
			</g>
			<g transform="translate(100 0)">
				<path d="M 100 28 C 100 -13 0 -13 0 50 C 0 113 100 113 100 72 L 100 48 L 55 48 L 55 72 L 75 72 C 75 90 30 90 30 50 C 30 10 75 5 75 28 Z" fill="#FFA500" transform="matrix(1.0 0 0 0.012257130694333665 0 198.77428693056663)"/>
				<path d="M 0 100 L 33 0 L 66 0 L 100 100 L 75 100 L 66 75 L 33 75 L 25 100 Z M 41 55 L 58 55 L 50 25 Z" fill="#FF0000" transform="matrix(1.0 0 0 0.04902810603822497 0 193.87147632674413)"/>
				<path d="M 100 28 C 100 -13 0 -13 0 50 C 0 113 100 113 100 72 L 75 72 C 75 90 30 90 30 50 C 30 10 75 10 75 28 Z" fill="#0000FF" transform="matrix(1.0 0 0 0.07109069124455974 0 186.76240720228816)"/>
				<path d="M 0 0 L 0 20 L 35 20 L 35 100 L 65 100 L 65 20 L 100 20 L 100 0 Z" fill="#228B22" transform="matrix(1.0 0 0 0.07599362687011514 0 179.16304451527665)"/>
			</g>
			<g transform="translate(200 0)">
				<path d="M 0 100 L 33 0 L 66 0 L 100 100 L 75 100 L 66 75 L 33 75 L 25 100 Z M 41 55 L 58 55 L 50 25 Z" fill="#FF0000" transform="matrix(1.0 0 0 0.05457143318062323 0 194.54285668193768)"/>
				<path d="M 100 28 C 100 -13 0 -13 0 50 C 0 113 100 113 100 72 L 75 72 C 75 90 30 90 30 50 C 30 10 75 10 75 28 Z" fill="#0000FF" transform="matrix(1.0 0 0 0.07016298723823965 0 187.5265579581137)"/>
				<path d="M 0 0 L 0 20 L 35 20 L 35 100 L 65 100 L 65 20 L 100 20 L 100 0 Z" fill="#228B22" transform="matrix(1.0 0 0 0.07016298723823965 0 180.51025923428975)"/>
				<path d="M 100 28 C 100 -13 0 -13 0 50 C 0 113 100 113 100 72 L 100 48 L 55 48 L 55 72 L 75 72 C 75 90 30 90 30 50 C 30 10 75 5 75 28 Z" fill="#FFA500" transform="matrix(1.0 0 0 0.46775457356021866 0 133.7348018782679)"/>
			</g>
			<g transform="translate(300 0)">
				<path d="M 100 28 C 100 -13 0 -13 0 50 C 0 113 100 113 100 72 L 75 72 C 75 90 30 90 30 50 C 30 10 75 10 75 28 Z" fill="#0000FF" transform="matrix(1.0 0 0 2.0 0 0.0)"/>
			</g>
			<g transform="translate(400 0)">
				<path d="M 0 0 L 0 20 L 35 20 L 35 100 L 65 100 L 65 20 L 100 20 L 100 0 Z" fill="#228B22" transform="matrix(1.0 0 0 0.008977891215993633 0 199.10221087840063)"/>
				<path d="M 100 28 C 100 -13 0 -13 0 50 C 0 113 100 113 100 72 L 75 72 C 75 90 30 90 30 50 C 30 10 75 10 75 28 Z" fill="#0000FF" transform="matrix(1.0 0 0 0.06733551960464161 0 192.36865891793647)"/>
				<path d="M 0 100 L 33 0 L 66 0 L 100 100 L 75 100 L 66 75 L 33 75 L 25 100 Z M 41 55 L 58 55 L 50 25 Z" fill="#FF0000" transform="matrix(1.0 0 0 0.1346706576422291 0 178.90159315371358)"/>
				<path d="M 100 28 C 100 -13 0 -13 0 50 C 0 113 100 113 100 72 L 100 48 L 55 48 L 55 72 L 75 72 C 75 90 30 90 30 50 C 30 10 75 5 75 28 Z" fill="#FFA500" transform="matrix(1.0 0 0 0.17058298564031188 0 161.8432945896824)"/>
			</g>
			<g transform="translate(500 0)">
				<path d="M 0 100 L 33 0 L 66 0 L 100 100 L 75 100 L 66 75 L 33 75 L 25 100 Z M 41 55 L 58 55 L 50 25 Z" fill="#FF0000" transform="matrix(1.0 0 0 2.0 0 0.0)"/>
			</g>
			<g transform="translate(600 0)">
				<path d="M 0 0 L 0 20 L 35 20 L 35 100 L 65 100 L 65 20 L 100 20 L 100 0 Z" fill="#228B22" transform="matrix(1.0 0 0 2.0 0 0.0)"/>
			</g>
			<g transform="translate(700 0)">
				<path d="M 0 100 L 33 0 L 66 0 L 100 100 L 75 100 L 66 75 L 33 75 L 25 100 Z M 41 55 L 58 55 L 50 25 Z" fill="#FF0000" transform="matrix(1.0 0 0 2.0 0 0.0)"/>
			</g>
			<g transform="translate(800 0)">
				<path d="M 0 100 L 33 0 L 66 0 L 100 100 L 75 100 L 66 75 L 33 75 L 25 100 Z M 41 55 L 58 55 L 50 25 Z" fill="#FF0000" transform="matrix(1.0 0 0 2.0 0 0.0)"/>
			</g>
			<g transform="translate(900 0)">
				<path d="M 0 0 L 0 20 L 35 20 L 35 100 L 65 100 L 65 20 L 100 20 L 100 0 Z" fill="#228B22" transform="matrix(1.0 0 0 2.0 0 0.0)"/>
			</g>
			<g transform="translate(1000 0)">
				<path d="M 0 100 L 33 0 L 66 0 L 100 100 L 75 100 L 66 75 L 33 75 L 25 100 Z M 41 55 L 58 55 L 50 25 Z" fill="#FF0000" transform="matrix(1.0 0 0 0.0055030055682130565 0 199.4496994431787)"/>
				<path d="M 0 0 L 0 20 L 35 20 L 35 100 L 65 100 L 65 20 L 100 20 L 100 0 Z" fill="#228B22" transform="matrix(1.0 0 0 0.00687876426895701 0 198.761823016283)"/>
				<path d="M 100 28 C 100 -13 0 -13 0 50 C 0 113 100 113 100 72 L 75 72 C 75 90 30 90 30 50 C 30 10 75 10 75 28 Z" fill="#0000FF" transform="matrix(1.0 0 0 0.007222711252833689 0 198.03955189099963)"/>
				<path d="M 100 28 C 100 -13 0 -13 0 50 C 0 113 100 113 100 72 L 100 48 L 55 48 L 55 72 L 75 72 C 75 90 30 90 30 50 C 30 10 75 5 75 28 Z" fill="#FFA500" transform="matrix(1.0 0 0 0.009630281670444918 0 197.07652372395512)"/>
			</g>
			<g transform="translate(1100 0)">
				<path d="M 100 28 C 100 -13 0 -13 0 50 C 0 113 100 113 100 72 L 100 48 L 55 48 L 55 72 L 75 72 C 75 90 30 90 30 50 C 30 10 75 5 75 28 Z" fill="#FFA500" transform="matrix(1.0 0 0 2.0 0 0.0)"/>
			</g>
			<g transform="translate(1200 0)">
				<path d="M 0 0 L 0 20 L 35 20 L 35 100 L 65 100 L 65 20 L 100 20 L 100 0 Z" fill="#228B22" transform="matrix(1.0 0 0 2.0 0 0.0)"/>
			</g>
			<g transform="translate(1300 0)">
				<path d="M 0 100 L 33 0 L 66 0 L 100 100 L 75 100 L 66 75 L 33 75 L 25 100 Z M 41 55 L 58 55 L 50 25 Z" fill="#FF0000" transform="matrix(1.0 0 0 0.020820233865272833 0 197.91797661347272)"/>
				<path d="M 100 28 C 100 -13 0 -13 0 50 C 0 113 100 113 100 72 L 75 72 C 75 90 30 90 30 50 C 30 10 75 10 75 28 Z" fill="#0000FF" transform="matrix(1.0 0 0 0.04996799497082412 0 192.9211771163903)"/>
				<path d="M 100 28 C 100 -13 0 -13 0 50 C 0 113 100 113 100 72 L 100 48 L 55 48 L 55 72 L 75 72 C 75 90 30 90 30 50 C 30 10 75 5 75 28 Z" fill="#FFA500" transform="matrix(1.0 0 0 0.09993634388279242 0 182.92754272811106)"/>
				<path d="M 0 0 L 0 20 L 35 20 L 35 100 L 65 100 L 65 20 L 100 20 L 100 0 Z" fill="#228B22" transform="matrix(1.0 0 0 0.18321657146159537 0 164.60588558195153)"/>
			</g>
			<g transform="translate(1400 0)">
				<path d="M 0 100 L 33 0 L 66 0 L 100 100 L 75 100 L 66 75 L 33 75 L 25 100 Z M 41 55 L 58 55 L 50 25 Z" fill="#FF0000" transform="matrix(1.0 0 0 2.0 0 0.0)"/>
			</g>
			<g transform="translate(1500 0)">
				<path d="M 100 28 C 100 -13 0 -13 0 50 C 0 113 100 113 100 72 L 75 72 C 75 90 30 90 30 50 C 30 10 75 10 75 28 Z" fill="#0000FF" transform="matrix(1.0 0 0 0.21149423497600714 0 178.8505765023993)"/>
				<path d="M 100 28 C 100 -13 0 -13 0 50 C 0 113 100 113 100 72 L 100 48 L 55 48 L 55 72 L 75 72 C 75 90 30 90 30 50 C 30 10 75 5 75 28 Z" fill="#FFA500" transform="matrix(1.0 0 0 1.171354281615405 0 61.715148340858775)"/>
			</g>
			<g transform="translate(1600 0)">
				<path d="M 100 28 C 100 -13 0 -13 0 50 C 0 113 100 113 100 72 L 75 72 C 75 90 30 90 30 50 C 30 10 75 10 75 28 Z" fill="#0000FF" transform="matrix(1.0 0 0 0.008862612257449349 0 199.11373877425507)"/>
				<path d="M 100 28 C 100 -13 0 -13 0 50 C 0 113 100 113 100 72 L 100 48 L 55 48 L 55 72 L 75 72 C 75 90 30 90 30 50 C 30 10 75 5 75 28 Z" fill="#FFA500" transform="matrix(1.0 0 0 0.0531741669382775 0 193.7963220804273)"/>
				<path d="M 0 0 L 0 20 L 35 20 L 35 100 L 65 100 L 65 20 L 100 20 L 100 0 Z" fill="#228B22" transform="matrix(1.0 0 0 0.19497294984462987 0 174.29902709596433)"/>
				<path d="M 0 100 L 33 0 L 66 0 L 100 100 L 75 100 L 66 75 L 33 75 L 25 100 Z M 41 55 L 58 55 L 50 25 Z" fill="#FF0000" transform="matrix(1.0 0 0 0.4962942335658147 0 124.66960373938286)"/>
			</g>
			<g transform="translate(1700 0)">
				<path d="M 100 28 C 100 -13 0 -13 0 50 C 0 113 100 113 100 72 L 75 72 C 75 90 30 90 30 50 C 30 10 75 10 75 28 Z" fill="#0000FF" transform="matrix(1.0 0 0 2.0 0 0.0)"/>
			</g>
			<g transform="translate(1800 0)">
				<path d="M 0 100 L 33 0 L 66 0 L 100 100 L 75 100 L 66 75 L 33 75 L 25 100 Z M 41 55 L 58 55 L 50 25 Z" fill="#FF0000" transform="matrix(1.0 0 0 2.0 0 0.0)"/>
			</g>
			<g transform="translate(1900 0)">
				<path d="M 0 100 L 33 0 L 66 0 L 100 100 L 75 100 L 66 75 L 33 75 L 25 100 Z M 41 55 L 58 55 L 50 25 Z" fill="#FF0000" transform="matrix(1.0 0 0 2.0 0 0.0)"/>
			</g>
			<g transform="translate(2000 0)">
				<path d="M 0 0 L 0 20 L 35 20 L 35 100 L 65 100 L 65 20 L 100 20 L 100 0 Z" fill="#228B22" transform="matrix(1.0 0 0 0.11519155976251935 0 188.48084402374806)"/>
				<path d="M 100 28 C 100 -13 0 -13 0 50 C 0 113 100 113 100 72 L 75 72 C 75 90 30 90 30 50 C 30 10 75 10 75 28 Z" fill="#0000FF" transform="matrix(1.0 0 0 1.5166943098260706 0 36.81141304114101)"/>
			</g>
			<g transform="translate(2100 0)">
				<path d="M 100 28 C 100 -13 0 -13 0 50 C 0 113 100 113 100 72 L 75 72 C 75 90 30 90 30 50 C 30 10 75 10 75 28 Z" fill="#0000FF" transform="matrix(1.0 0 0 0.09866203392245977 0 190.13379660775402)"/>
				<path d="M 0 100 L 33 0 L 66 0 L 100 100 L 75 100 L 66 75 L 33 75 L 25 100 Z M 41 55 L 58 55 L 50 25 Z" fill="#FF0000" transform="matrix(1.0 0 0 1.5785791248300862 0 32.2758841247454)"/>
			</g>
			<g transform="translate(2200 0)">
				<path d="M 0 100 L 33 0 L 66 0 L 100 100 L 75 100 L 66 75 L 33 75 L 25 100 Z M 41 55 L 58 55 L 50 25 Z" fill="#FF0000" transform="matrix(1.0 0 0 0.009476529252825433 0 199.05234707471746)"/>
				<path d="M 100 28 C 100 -13 0 -13 0 50 C 0 113 100 113 100 72 L 75 72 C 75 90 30 90 30 50 C 30 10 75 10 75 28 Z" fill="#0000FF" transform="matrix(1.0 0 0 0.013850302452284323 0 197.66731682948904)"/>
				<path d="M 100 28 C 100 -13 0 -13 0 50 C 0 113 100 113 100 72 L 100 48 L 55 48 L 55 72 L 75 72 C 75 90 30 90 30 50 C 30 10 75 5 75 28 Z" fill="#FFA500" transform="matrix(1.0 0 0 0.016766171905921425 0 195.99069963889687)"/>
				<path d="M 0 0 L 0 20 L 35 20 L 35 100 L 65 100 L 65 20 L 100 20 L 100 0 Z" fill="#228B22" transform="matrix(1.0 0 0 0.02186892795928797 0 193.80380684296807)"/>
			</g>
			<g transform="translate(2300 0)">
				<path d="M 0 0 L 0 20 L 35 20 L 35 100 L 65 100 L 65 20 L 100 20 L 100 0 Z" fill="#228B22" transform="matrix(1.0 0 0 0.020576159231558158 0 197.94238407684418)"/>
				<path d="M 100 28 C 100 -13 0 -13 0 50 C 0 113 100 113 100 72 L 100 48 L 55 48 L 55 72 L 75 72 C 75 90 30 90 30 50 C 30 10 75 5 75 28 Z" fill="#FFA500" transform="matrix(1.0 0 0 0.08230463692623263 0 189.71192038422092)"/>
				<path d="M 0 100 L 33 0 L 66 0 L 100 100 L 75 100 L 66 75 L 33 75 L 25 100 Z M 41 55 L 58 55 L 50 25 Z" fill="#FF0000" transform="matrix(1.0 0 0 0.10288137915091236 0 179.4237824691297)"/>
				<path d="M 100 28 C 100 -13 0 -13 0 50 C 0 113 100 113 100 72 L 75 72 C 75 90 30 90 30 50 C 30 10 75 10 75 28 Z" fill="#0000FF" transform="matrix(1.0 0 0 0.3772309462291833 0 141.70068784621134)"/>
			</g>
			<g transform="translate(2400 0)">
				<path d="M 0 0 L 0 20 L 35 20 L 35 100 L 65 100 L 65 20 L 100 20 L 100 0 Z" fill="#228B22" transform="matrix(1.0 0 0 0.040030159322911665 0 195.99698406770884)"/>
				<path d="M 0 100 L 33 0 L 66 0 L 100 100 L 75 100 L 66 75 L 33 75 L 25 100 Z M 41 55 L 58 55 L 50 25 Z" fill="#FF0000" transform="matrix(1.0 0 0 0.05782146726549775 0 190.21483734115907)"/>
				<path d="M 100 28 C 100 -13 0 -13 0 50 C 0 113 100 113 100 72 L 100 48 L 55 48 L 55 72 L 75 72 C 75 90 30 90 30 50 C 30 10 75 5 75 28 Z" fill="#FFA500" transform="matrix(1.0 0 0 0.05782146726549775 0 184.43269061460927)"/>
				<path d="M 100 28 C 100 -13 0 -13 0 50 C 0 113 100 113 100 72 L 75 72 C 75 90 30 90 30 50 C 30 10 75 10 75 28 Z" fill="#0000FF" transform="matrix(1.0 0 0 0.222390404122636 0 162.19365020234568)"/>
			</g>
			<g transform="translate(2500 0)">
				<path d="M 100 28 C 100 -13 0 -13 0 50 C 0 113 100 113 100 72 L 75 72 C 75 90 30 90 30 50 C 30 10 75 10 75 28 Z" fill="#0000FF" transform="matrix(1.0 0 0 0.010421849207392576 0 198.95781507926074)"/>
				<path d="M 0 100 L 33 0 L 66 0 L 100 100 L 75 100 L 66 75 L 33 75 L 25 100 Z M 41 55 L 58 55 L 50 25 Z" fill="#FF0000" transform="matrix(1.0 0 0 0.026633680260383655 0 196.29444705322237)"/>
				<path d="M 100 28 C 100 -13 0 -13 0 50 C 0 113 100 113 100 72 L 100 48 L 55 48 L 55 72 L 75 72 C 75 90 30 90 30 50 C 30 10 75 5 75 28 Z" fill="#FFA500" transform="matrix(1.0 0 0 0.030107629996181176 0 193.28368405360425)"/>
				<path d="M 0 0 L 0 20 L 35 20 L 35 100 L 65 100 L 65 20 L 100 20 L 100 0 Z" fill="#228B22" transform="matrix(1.0 0 0 0.031265646051081675 0 190.1571194484961)"/>
			</g>
			<g transform="translate(2600 0)">
				<path d="M 0 0 L 0 20 L 35 20 L 35 100 L 65 100 L 65 20 L 100 20 L 100 0 Z" fill="#228B22" transform="matrix(1.0 0 0 2.0 0 0.0)"/>
			</g>
		</g>
		<g transform="translate(0 800)">
			<g transform="translate(0 0)">
				<path d="M 0 100 L 33 0 L 66 0 L 100 100 L 75 100 L 66 75 L 33 75 L 25 100 Z M 41 55 L 58 55 L 50 25 Z" fill="#FF0000" transform="matrix(1.0 0 0 2.0 0 0.0)"/>
			</g>
			<g transform="translate(100 0)">
				<path d="M 100 28 C 100 -13 0 -13 0 50 C 0 113 100 113 100 72 L 100 48 L 55 48 L 55 72 L 75 72 C 75 90 30 90 30 50 C 30 10 75 5 75 28 Z" fill="#FFA500" transform="matrix(1.0 0 0 0.0244235872875427 0 197.55764127124573)"/>
				<path d="M 0 100 L 33 0 L 66 0 L 100 100 L 75 100 L 66 75 L 33 75 L 25 100 Z M 41 55 L 58 55 L 50 25 Z" fill="#FF0000" transform="matrix(1.0 0 0 0.026643913404592042 0 194.89324993078654)"/>
				<path d="M 0 0 L 0 20 L 35 20 L 35 100 L 65 100 L 65 20 L 100 20 L 100 0 Z" fill="#228B22" transform="matrix(1.0 0 0 0.07993174021377612 0 186.9000759094089)"/>
				<path d="M 100 28 C 100 -13 0 -13 0 50 C 0 113 100 113 100 72 L 75 72 C 75 90 30 90 30 50 C 30 10 75 10 75 28 Z" fill="#0000FF" transform="matrix(1.0 0 0 0.0888130446819735 0 178.01877144121156)"/>
			</g>
			<g transform="translate(200 0)">
				<path d="M 0 0 L 0 20 L 35 20 L 35 100 L 65 100 L 65 20 L 100 20 L 100 0 Z" fill="#228B22" transform="matrix(1.0 0 0 0.038627921151178975 0 196.13720788488212)"/>
				<path d="M 0 100 L 33 0 L 66 0 L 100 100 L 75 100 L 66 75 L 33 75 L 25 100 Z M 41 55 L 58 55 L 50 25 Z" fill="#FF0000" transform="matrix(1.0 0 0 0.04213955034674071 0 191.92325285020803)"/>
				<path d="M 100 28 C 100 -13 0 -13 0 50 C 0 113 100 113 100 72 L 75 72 C 75 90 30 90 30 50 C 30 10 75 10 75 28 Z" fill="#0000FF" transform="matrix(1.0 0 0 0.07023258391123452 0 184.89999445908458)"/>
				<path d="M 100 28 C 100 -13 0 -13 0 50 C 0 113 100 113 100 72 L 100 48 L 55 48 L 55 72 L 75 72 C 75 90 30 90 30 50 C 30 10 75 5 75 28 Z" fill="#FFA500" transform="matrix(1.0 0 0 0.19665158260309465 0 165.2348361987751)"/>
			</g>
			<g transform="translate(300 0)">
				<path d="M 100 28 C 100 -13 0 -13 0 50 C 0 113 100 113 100 72 L 75 72 C 75 90 30 90 30 50 C 30 10 75 10 75 28 Z" fill="#0000FF" transform="matrix(1.0 0 0 2.0 0 0.0)"/>
			</g>
			<g transform="translate(400 0)">
				<path d="M 0 0 L 0 20 L 35 20 L 35 100 L 65 100 L 65 20 L 100 20 L 100 0 Z" fill="#228B22" transform="matrix(1.0 0 0 0.01894603124335747 0 198.10539687566424)"/>
				<path d="M 100 28 C 100 -13 0 -13 0 50 C 0 113 100 113 100 72 L 75 72 C 75 90 30 90 30 50 C 30 10 75 10 75 28 Z" fill="#0000FF" transform="matrix(1.0 0 0 0.026232966336956497 0 195.4821002419686)"/>
				<path d="M 0 100 L 33 0 L 66 0 L 100 100 L 75 100 L 66 75 L 33 75 L 25 100 Z M 41 55 L 58 55 L 50 25 Z" fill="#FF0000" transform="matrix(1.0 0 0 0.036434675467995135 0 191.83863269516908)"/>
				<path d="M 100 28 C 100 -13 0 -13 0 50 C 0 113 100 113 100 72 L 100 48 L 55 48 L 55 72 L 75 72 C 75 90 30 90 30 50 C 30 10 75 5 75 28 Z" fill="#FFA500" transform="matrix(1.0 0 0 0.06266764180495163 0 185.57186851467392)"/>
			</g>
			<g transform="translate(500 0)">
				<path d="M 0 100 L 33 0 L 66 0 L 100 100 L 75 100 L 66 75 L 33 75 L 25 100 Z M 41 55 L 58 55 L 50 25 Z" fill="#FF0000" transform="matrix(1.0 0 0 2.0 0 0.0)"/>
			</g>
			<g transform="translate(600 0)">
				<path d="M 0 0 L 0 20 L 35 20 L 35 100 L 65 100 L 65 20 L 100 20 L 100 0 Z" fill="#228B22" transform="matrix(1.0 0 0 2.0 0 0.0)"/>
			</g>
			<g transform="translate(700 0)">
				<path d="M 0 100 L 33 0 L 66 0 L 100 100 L 75 100 L 66 75 L 33 75 L 25 100 Z M 41 55 L 58 55 L 50 25 Z" fill="#FF0000" transform="matrix(1.0 0 0 2.0 0 0.0)"/>
			</g>
			<g transform="translate(800 0)">
				<path d="M 100 28 C 100 -13 0 -13 0 50 C 0 113 100 113 100 72 L 75 72 C 75 90 30 90 30 50 C 30 10 75 10 75 28 Z" fill="#0000FF" transform="matrix(1.0 0 0 0.054669365956081475 0 194.53306340439184)"/>
				<path d="M 0 100 L 33 0 L 66 0 L 100 100 L 75 100 L 66 75 L 33 75 L 25 100 Z M 41 55 L 58 55 L 50 25 Z" fill="#FF0000" transform="matrix(1.0 0 0 1.7494215146854877 0 19.59091193584308)"/>
			</g>
			<g transform="translate(900 0)">
				<path d="M 0 0 L 0 20 L 35 20 L 35 100 L 65 100 L 65 20 L 100 20 L 100 0 Z" fill="#228B22" transform="matrix(1.0 0 0 2.0 0 0.0)"/>
			</g>
			<g transform="translate(1000 0)">
				<path d="M 0 100 L 33 0 L 66 0 L 100 100 L 75 100 L 66 75 L 33 75 L 25 100 Z M 41 55 L 58 55 L 50 25 Z" fill="#FF0000" transform="matrix(1.0 0 0 0.0044544514308559055 0 199.55455485691442)"/>
				<path d="M 0 0 L 0 20 L 35 20 L 35 100 L 65 100 L 65 20 L 100 20 L 100 0 Z" fill="#228B22" transform="matrix(1.0 0 0 0.004666568165658567 0 199.08789804034856)"/>
				<path d="M 100 28 C 100 -13 0 -13 0 50 C 0 113 100 113 100 72 L 75 72 C 75 90 30 90 30 50 C 30 10 75 10 75 28 Z" fill="#0000FF" transform="matrix(1.0 0 0 0.0050908016352638925 0 198.57881787682217)"/>
				<path d="M 100 28 C 100 -13 0 -13 0 50 C 0 113 100 113 100 72 L 100 48 L 55 48 L 55 72 L 75 72 C 75 90 30 90 30 50 C 30 10 75 5 75 28 Z" fill="#FFA500" transform="matrix(1.0 0 0 0.00678773551368519 0 197.90004432545365)"/>
			</g>
			<g transform="translate(1100 0)">
				<path d="M 100 28 C 100 -13 0 -13 0 50 C 0 113 100 113 100 72 L 100 48 L 55 48 L 55 72 L 75 72 C 75 90 30 90 30 50 C 30 10 75 5 75 28 Z" fill="#FFA500" transform="matrix(1.0 0 0 2.0 0 0.0)"/>
			</g>
			<g transform="translate(1200 0)">
				<path d="M 0 0 L 0 20 L 35 20 L 35 100 L 65 100 L 65 20 L 100 20 L 100 0 Z" fill="#228B22" transform="matrix(1.0 0 0 2.0 0 0.0)"/>
			</g>
			<g transform="translate(1300 0)">
				<path d="M 0 100 L 33 0 L 66 0 L 100 100 L 75 100 L 66 75 L 33 75 L 25 100 Z M 41 55 L 58 55 L 50 25 Z" fill="#FF0000" transform="matrix(1.0 0 0 0.018538091418287782 0 198.14619085817122)"/>
				<path d="M 100 28 C 100 -13 0 -13 0 50 C 0 113 100 113 100 72 L 75 72 C 75 90 30 90 30 50 C 30 10 75 10 75 28 Z" fill="#0000FF" transform="matrix(1.0 0 0 0.030335058684470922 0 195.11268498972413)"/>
				<path d="M 100 28 C 100 -13 0 -13 0 50 C 0 113 100 113 100 72 L 100 48 L 55 48 L 55 72 L 75 72 C 75 90 30 90 30 50 C 30 10 75 5 75 28 Z" fill="#FFA500" transform="matrix(1.0 0 0 0.04550258802670639 0 190.5624261870535)"/>
				<path d="M 0 0 L 0 20 L 35 20 L 35 100 L 65 100 L 65 20 L 100 20 L 100 0 Z" fill="#228B22" transform="matrix(1.0 0 0 0.07246708463512497 0 183.31571772354098)"/>
			</g>
			<g transform="translate(1400 0)">
				<path d="M 0 100 L 33 0 L 66 0 L 100 100 L 75 100 L 66 75 L 33 75 L 25 100 Z M 41 55 L 58 55 L 50 25 Z" fill="#FF0000" transform="matrix(1.0 0 0 2.0 0 0.0)"/>
			</g>
			<g transform="translate(1500 0)">
				<path d="M 100 28 C 100 -13 0 -13 0 50 C 0 113 100 113 100 72 L 75 72 C 75 90 30 90 30 50 C 30 10 75 10 75 28 Z" fill="#0000FF" transform="matrix(1.0 0 0 0.1889557133749725 0 181.10442866250276)"/>
				<path d="M 100 28 C 100 -13 0 -13 0 50 C 0 113 100 113 100 72 L 100 48 L 55 48 L 55 72 L 75 72 C 75 90 30 90 30 50 C 30 10 75 5 75 28 Z" fill="#FFA500" transform="matrix(1.0 0 0 1.2500161582216895 0 56.1028128403338)"/>
			</g>
			<g transform="translate(1600 0)">
				<path d="M 100 28 C 100 -13 0 -13 0 50 C 0 113 100 113 100 72 L 75 72 C 75 90 30 90 30 50 C 30 10 75 10 75 28 Z" fill="#0000FF" transform="matrix(1.0 0 0 0.007183838943741891 0 199.2816161056258)"/>
				<path d="M 100 28 C 100 -13 0 -13 0 50 C 0 113 100 113 100 72 L 100 48 L 55 48 L 55 72 L 75 72 C 75 90 30 90 30 50 C 30 10 75 5 75 28 Z" fill="#FFA500" transform="matrix(1.0 0 0 0.07183838943741891 0 192.09777716188393)"/>
				<path d="M 0 0 L 0 20 L 35 20 L 35 100 L 65 100 L 65 20 L 100 20 L 100 0 Z" fill="#228B22" transform="matrix(1.0 0 0 0.16522829570606348 0 175.57494759127758)"/>
				<path d="M 0 100 L 33 0 L 66 0 L 100 100 L 75 100 L 66 75 L 33 75 L 25 100 Z M 41 55 L 58 55 L 50 25 Z" fill="#FF0000" transform="matrix(1.0 0 0 0.4669502425439894 0 128.87992333687862)"/>
			</g>
			<g transform="translate(1700 0)">
				<path d="M 0 100 L 33 0 L 66 0 L 100 100 L 75 100 L 66 75 L 33 75 L 25 100 Z M 41 55 L 58 55 L 50 25 Z" fill="#FF0000" transform="matrix(1.0 0 0 0.019379152741031903 0 198.0620847258968)"/>
				<path d="M 100 28 C 100 -13 0 -13 0 50 C 0 113 100 113 100 72 L 75 72 C 75 90 30 90 30 50 C 30 10 75 10 75 28 Z" fill="#0000FF" transform="matrix(1.0 0 0 1.8991588871591663 0 8.146196009980201)"/>
			</g>
			<g transform="translate(1800 0)">
				<path d="M 0 100 L 33 0 L 66 0 L 100 100 L 75 100 L 66 75 L 33 75 L 25 100 Z M 41 55 L 58 55 L 50 25 Z" fill="#FF0000" transform="matrix(1.0 0 0 2.0 0 0.0)"/>
			</g>
			<g transform="translate(1900 0)">
				<path d="M 0 100 L 33 0 L 66 0 L 100 100 L 75 100 L 66 75 L 33 75 L 25 100 Z M 41 55 L 58 55 L 50 25 Z" fill="#FF0000" transform="matrix(1.0 0 0 2.0 0 0.0)"/>
			</g>
			<g transform="translate(2000 0)">
				<path d="M 0 0 L 0 20 L 35 20 L 35 100 L 65 100 L 65 20 L 100 20 L 100 0 Z" fill="#228B22" transform="matrix(1.0 0 0 0.21005757130291264 0 178.99424286970873)"/>
				<path d="M 100 28 C 100 -13 0 -13 0 50 C 0 113 100 113 100 72 L 75 72 C 75 90 30 90 30 50 C 30 10 75 10 75 28 Z" fill="#0000FF" transform="matrix(1.0 0 0 1.1763237856776678 0 61.36186430194195)"/>
			</g>
			<g transform="translate(2100 0)">
				<path d="M 100 28 C 100 -13 0 -13 0 50 C 0 113 100 113 100 72 L 100 48 L 55 48 L 55 72 L 75 72 C 75 90 30 90 30 50 C 30 10 75 5 75 28 Z" fill="#FFA500" transform="matrix(1.0 0 0 0.014625329302372654 0 198.53746706976273)"/>
				<path d="M 100 28 C 100 -13 0 -13 0 50 C 0 113 100 113 100 72 L 75 72 C 75 90 30 90 30 50 C 30 10 75 10 75 28 Z" fill="#0000FF" transform="matrix(1.0 0 0 0.14625329302372653 0 183.91213776739008)"/>
				<path d="M 0 100 L 33 0 L 66 0 L 100 100 L 75 100 L 66 75 L 33 75 L 25 100 Z M 41 55 L 58 55 L 50 25 Z" fill="#FF0000" transform="matrix(1.0 0 0 1.287030426517842 0 55.20909511560586)"/>
			</g>
			<g transform="translate(2200 0)">
				<path d="M 0 100 L 33 0 L 66 0 L 100 100 L 75 100 L 66 75 L 33 75 L 25 100 Z M 41 55 L 58 55 L 50 25 Z" fill="#FF0000" transform="matrix(1.0 0 0 0.013883613237103472 0 198.61163867628966)"/>
				<path d="M 100 28 C 100 -13 0 -13 0 50 C 0 113 100 113 100 72 L 75 72 C 75 90 30 90 30 50 C 30 10 75 10 75 28 Z" fill="#0000FF" transform="matrix(1.0 0 0 0.014751339064422437 0 197.13650476984742)"/>
				<path d="M 100 28 C 100 -13 0 -13 0 50 C 0 113 100 113 100 72 L 100 48 L 55 48 L 55 72 L 75 72 C 75 90 30 90 30 50 C 30 10 75 5 75 28 Z" fill="#FFA500" transform="matrix(1.0 0 0 0.026031774819569007 0 194.5333272878905)"/>
				<path d="M 0 0 L 0 20 L 35 20 L 35 100 L 65 100 L 65 20 L 100 20 L 100 0 Z" fill="#228B22" transform="matrix(1.0 0 0 0.03123812978348281 0 191.40951430954223)"/>
			</g>
			<g transform="translate(2300 0)">
				<path d="M 0 0 L 0 20 L 35 20 L 35 100 L 65 100 L 65 20 L 100 20 L 100 0 Z" fill="#228B22" transform="matrix(1.0 0 0 0.022502169598457623 0 197.74978304015423)"/>
				<path d="M 100 28 C 100 -13 0 -13 0 50 C 0 113 100 113 100 72 L 100 48 L 55 48 L 55 72 L 75 72 C 75 90 30 90 30 50 C 30 10 75 5 75 28 Z" fill="#FFA500" transform="matrix(1.0 0 0 0.06750650879537286 0 190.99913216061697)"/>
				<path d="M 0 100 L 33 0 L 66 0 L 100 100 L 75 100 L 66 75 L 33 75 L 25 100 Z M 41 55 L 58 55 L 50 25 Z" fill="#FF0000" transform="matrix(1.0 0 0 0.12751229439125986 0 178.24790272149096)"/>
				<path d="M 100 28 C 100 -13 0 -13 0 50 C 0 113 100 113 100 72 L 75 72 C 75 90 30 90 30 50 C 30 10 75 10 75 28 Z" fill="#0000FF" transform="matrix(1.0 0 0 0.5250513665363505 0 125.74276606785591)"/>
			</g>
			<g transform="translate(2400 0)">
				<path d="M 100 28 C 100 -13 0 -13 0 50 C 0 113 100 113 100 72 L 100 48 L 55 48 L 55 72 L 75 72 C 75 90 30 90 30 50 C 30 10 75 5 75 28 Z" fill="#FFA500" transform="matrix(1.0 0 0 0.0398538710709128 0 196.01461289290873)"/>
				<path d="M 0 0 L 0 20 L 35 20 L 35 100 L 65 100 L 65 20 L 100 20 L 100 0 Z" fill="#228B22" transform="matrix(1.0 0 0 0.04871028686444898 0 191.14358420646383)"/>
				<path d="M 0 100 L 33 0 L 66 0 L 100 100 L 75 100 L 66 75 L 33 75 L 25 100 Z M 41 55 L 58 55 L 50 25 Z" fill="#FF0000" transform="matrix(1.0 0 0 0.0841359500385937 0 182.72998920260446)"/>
				<path d="M 100 28 C 100 -13 0 -13 0 50 C 0 113 100 113 100 72 L 75 72 C 75 90 30 90 30 50 C 30 10 75 10 75 28 Z" fill="#0000FF" transform="matrix(1.0 0 0 0.2656929121991055 0 156.1606979826939)"/>
			</g>
			<g transform="translate(2500 0)">
				<path d="M 100 28 C 100 -13 0 -13 0 50 C 0 113 100 113 100 72 L 75 72 C 75 90 30 90 30 50 C 30 10 75 10 75 28 Z" fill="#0000FF" transform="matrix(1.0 0 0 0.0036087940588501646 0 199.63912059411498)"/>
				<path d="M 0 100 L 33 0 L 66 0 L 100 100 L 75 100 L 66 75 L 33 75 L 25 100 Z M 41 55 L 58 55 L 50 25 Z" fill="#FF0000" transform="matrix(1.0 0 0 0.0045584767059159955 0 199.1832729235234)"/>
				<path d="M 0 0 L 0 20 L 35 20 L 35 100 L 65 100 L 65 20 L 100 20 L 100 0 Z" fill="#228B22" transform="matrix(1.0 0 0 0.004938349764742329 0 198.68943794704916)"/>
				<path d="M 100 28 C 100 -13 0 -13 0 50 C 0 113 100 113 100 72 L 100 48 L 55 48 L 55 72 L 75 72 C 75 90 30 90 30 50 C 30 10 75 5 75 28 Z" fill="#FFA500" transform="matrix(1.0 0 0 0.005698095882394994 0 198.11962835880965)"/>
			</g>
			<g transform="translate(2600 0)">
				<path d="M 0 0 L 0 20 L 35 20 L 35 100 L 65 100 L 65 20 L 100 20 L 100 0 Z" fill="#228B22" transform="matrix(1.0 0 0 2.0 0 0.0)"/>
			</g>
		</g>
		<g transform="translate(0 1000)">
			<g transform="translate(0 0)">
				<path d="M 0 100 L 33 0 L 66 0 L 100 100 L 75 100 L 66 75 L 33 75 L 25 100 Z M 41 55 L 58 55 L 50 25 Z" fill="#FF0000" transform="matrix(1.0 0 0 2.0 0 0.0)"/>
			</g>
			<g transform="translate(100 0)">
				<path d="M 0 100 L 33 0 L 66 0 L 100 100 L 75 100 L 66 75 L 33 75 L 25 100 Z M 41 55 L 58 55 L 50 25 Z" fill="#FF0000" transform="matrix(1.0 0 0 0.018797405397073252 0 198.1202594602927)"/>
				<path d="M 100 28 C 100 -13 0 -13 0 50 C 0 113 100 113 100 72 L 100 48 L 55 48 L 55 72 L 75 72 C 75 90 30 90 30 50 C 30 10 75 5 75 28 Z" fill="#FFA500" transform="matrix(1.0 0 0 0.023496648661440675 0 195.7705945941486)"/>
				<path d="M 0 0 L 0 20 L 35 20 L 35 100 L 65 100 L 65 20 L 100 20 L 100 0 Z" fill="#228B22" transform="matrix(1.0 0 0 0.04229405405851392 0 191.5411891882972)"/>
				<path d="M 100 28 C 100 -13 0 -13 0 50 C 0 113 100 113 100 72 L 75 72 C 75 90 30 90 30 50 C 30 10 75 10 75 28 Z" fill="#0000FF" transform="matrix(1.0 0 0 0.059524948958663906 0 185.58869429243083)"/>
			</g>
			<g transform="translate(200 0)">
				<path d="M 0 0 L 0 20 L 35 20 L 35 100 L 65 100 L 65 20 L 100 20 L 100 0 Z" fill="#228B22" transform="matrix(1.0 0 0 0.03157107433788522 0 196.84289256621148)"/>
				<path d="M 0 100 L 33 0 L 66 0 L 100 100 L 75 100 L 66 75 L 33 75 L 25 100 Z M 41 55 L 58 55 L 50 25 Z" fill="#FF0000" transform="matrix(1.0 0 0 0.056827701445829805 0 191.1601224216285)"/>
				<path d="M 100 28 C 100 -13 0 -13 0 50 C 0 113 100 113 100 72 L 75 72 C 75 90 30 90 30 50 C 30 10 75 10 75 28 Z" fill="#0000FF" transform="matrix(1.0 0 0 0.11365540289165961 0 179.79458213246255)"/>
				<path d="M 100 28 C 100 -13 0 -13 0 50 C 0 113 100 113 100 72 L 100 48 L 55 48 L 55 72 L 75 72 C 75 90 30 90 30 50 C 30 10 75 5 75 28 Z" fill="#FFA500" transform="matrix(1.0 0 0 0.3788517302428047 0 141.90940910818207)"/>
			</g>
			<g transform="translate(300 0)">
				<path d="M 100 28 C 100 -13 0 -13 0 50 C 0 113 100 113 100 72 L 75 72 C 75 90 30 90 30 50 C 30 10 75 10 75 28 Z" fill="#0000FF" transform="matrix(1.0 0 0 2.0 0 0.0)"/>
			</g>
			<g transform="translate(400 0)">
				<path d="M 0 0 L 0 20 L 35 20 L 35 100 L 65 100 L 65 20 L 100 20 L 100 0 Z" fill="#228B22" transform="matrix(1.0 0 0 0.018815489738710292 0 198.11845102612898)"/>
				<path d="M 100 28 C 100 -13 0 -13 0 50 C 0 113 100 113 100 72 L 75 72 C 75 90 30 90 30 50 C 30 10 75 10 75 28 Z" fill="#0000FF" transform="matrix(1.0 0 0 0.04703886859972925 0 193.41456416615605)"/>
				<path d="M 0 100 L 33 0 L 66 0 L 100 100 L 75 100 L 66 75 L 33 75 L 25 100 Z M 41 55 L 58 55 L 50 25 Z" fill="#FF0000" transform="matrix(1.0 0 0 0.08467013658305687 0 184.94755050785037)"/>
				<path d="M 100 28 C 100 -13 0 -13 0 50 C 0 113 100 113 100 72 L 100 48 L 55 48 L 55 72 L 75 72 C 75 90 30 90 30 50 C 30 10 75 5 75 28 Z" fill="#FFA500" transform="matrix(1.0 0 0 0.1379811236015966 0 171.14943814769072)"/>
			</g>
			<g transform="translate(500 0)">
				<path d="M 0 100 L 33 0 L 66 0 L 100 100 L 75 100 L 66 75 L 33 75 L 25 100 Z M 41 55 L 58 55 L 50 25 Z" fill="#FF0000" transform="matrix(1.0 0 0 2.0 0 0.0)"/>
			</g>
			<g transform="translate(600 0)">
				<path d="M 0 0 L 0 20 L 35 20 L 35 100 L 65 100 L 65 20 L 100 20 L 100 0 Z" fill="#228B22" transform="matrix(1.0 0 0 2.0 0 0.0)"/>
			</g>
			<g transform="translate(700 0)">
				<path d="M 0 100 L 33 0 L 66 0 L 100 100 L 75 100 L 66 75 L 33 75 L 25 100 Z M 41 55 L 58 55 L 50 25 Z" fill="#FF0000" transform="matrix(1.0 0 0 2.0 0 0.0)"/>
			</g>
			<g transform="translate(800 0)">
				<path d="M 100 28 C 100 -13 0 -13 0 50 C 0 113 100 113 100 72 L 75 72 C 75 90 30 90 30 50 C 30 10 75 10 75 28 Z" fill="#0000FF" transform="matrix(1.0 0 0 0.05845777361102746 0 194.15422263889727)"/>
				<path d="M 0 100 L 33 0 L 66 0 L 100 100 L 75 100 L 66 75 L 33 75 L 25 100 Z M 41 55 L 58 55 L 50 25 Z" fill="#FF0000" transform="matrix(1.0 0 0 1.7342305520361085 0 20.73116743528641)"/>
			</g>
			<g transform="translate(900 0)">
				<path d="M 0 0 L 0 20 L 35 20 L 35 100 L 65 100 L 65 20 L 100 20 L 100 0 Z" fill="#228B22" transform="matrix(1.0 0 0 2.0 0 0.0)"/>
			</g>
			<g transform="translate(1000 0)">
				<path d="M 0 100 L 33 0 L 66 0 L 100 100 L 75 100 L 66 75 L 33 75 L 25 100 Z M 41 55 L 58 55 L 50 25 Z" fill="#FF0000" transform="matrix(1.0 0 0 0.017227304919181743 0 198.27726950808182)"/>
				<path d="M 0 0 L 0 20 L 35 20 L 35 100 L 65 100 L 65 20 L 100 20 L 100 0 Z" fill="#228B22" transform="matrix(1.0 0 0 0.023379929991452233 0 195.93927650893662)"/>
				<path d="M 100 28 C 100 -13 0 -13 0 50 C 0 113 100 113 100 72 L 75 72 C 75 90 30 90 30 50 C 30 10 75 10 75 28 Z" fill="#0000FF" transform="matrix(1.0 0 0 0.024610387081142892 0 193.4782378008223)"/>
				<path d="M 100 28 C 100 -13 0 -13 0 50 C 0 113 100 113 100 72 L 100 48 L 55 48 L 55 72 L 75 72 C 75 90 30 90 30 50 C 30 10 75 5 75 28 Z" fill="#FFA500" transform="matrix(1.0 0 0 0.047990317072595115 0 188.6792060935628)"/>
			</g>
			<g transform="translate(1100 0)">
				<path d="M 100 28 C 100 -13 0 -13 0 50 C 0 113 100 113 100 72 L 100 48 L 55 48 L 55 72 L 75 72 C 75 90 30 90 30 50 C 30 10 75 5 75 28 Z" fill="#FFA500" transform="matrix(1.0 0 0 2.0 0 0.0)"/>
			</g>
			<g transform="translate(1200 0)">
				<path d="M 0 0 L 0 20 L 35 20 L 35 100 L 65 100 L 65 20 L 100 20 L 100 0 Z" fill="#228B22" transform="matrix(1.0 0 0 2.0 0 0.0)"/>
			</g>
			<g transform="translate(1300 0)">
				<path d="M 0 100 L 33 0 L 66 0 L 100 100 L 75 100 L 66 75 L 33 75 L 25 100 Z M 41 55 L 58 55 L 50 25 Z" fill="#FF0000" transform="matrix(1.0 0 0 0.018437367278851757 0 198.1562632721148)"/>
				<path d="M 100 28 C 100 -13 0 -13 0 50 C 0 113 100 113 100 72 L 75 72 C 75 90 30 90 30 50 C 30 10 75 10 75 28 Z" fill="#0000FF" transform="matrix(1.0 0 0 0.051624492682195974 0 192.99381400389524)"/>
				<path d="M 100 28 C 100 -13 0 -13 0 50 C 0 113 100 113 100 72 L 100 48 L 55 48 L 55 72 L 75 72 C 75 90 30 90 30 50 C 30 10 75 5 75 28 Z" fill="#FFA500" transform="matrix(1.0 0 0 0.09956137621003266 0 183.03767638289196)"/>
				<path d="M 0 0 L 0 20 L 35 20 L 35 100 L 65 100 L 65 20 L 100 20 L 100 0 Z" fill="#228B22" transform="matrix(1.0 0 0 0.16962323617108038 0 166.07535276578392)"/>
			</g>
			<g transform="translate(1400 0)">
				<path d="M 0 100 L 33 0 L 66 0 L 100 100 L 75 100 L 66 75 L 33 75 L 25 100 Z M 41 55 L 58 55 L 50 25 Z" fill="#FF0000" transform="matrix(1.0 0 0 2.0 0 0.0)"/>
			</g>
			<g transform="translate(1500 0)">
				<path d="M 100 28 C 100 -13 0 -13 0 50 C 0 113 100 113 100 72 L 75 72 C 75 90 30 90 30 50 C 30 10 75 10 75 28 Z" fill="#0000FF" transform="matrix(1.0 0 0 0.17598662621796732 0 182.40133737820327)"/>
				<path d="M 100 28 C 100 -13 0 -13 0 50 C 0 113 100 113 100 72 L 100 48 L 55 48 L 55 72 L 75 72 C 75 90 30 90 30 50 C 30 10 75 5 75 28 Z" fill="#FFA500" transform="matrix(1.0 0 0 1.2959041964974367 0 52.8109177284596)"/>
			</g>
			<g transform="translate(1600 0)">
				<path d="M 100 28 C 100 -13 0 -13 0 50 C 0 113 100 113 100 72 L 75 72 C 75 90 30 90 30 50 C 30 10 75 10 75 28 Z" fill="#0000FF" transform="matrix(1.0 0 0 0.0101167080302838 0 198.98832919697162)"/>
				<path d="M 100 28 C 100 -13 0 -13 0 50 C 0 113 100 113 100 72 L 100 48 L 55 48 L 55 72 L 75 72 C 75 90 30 90 30 50 C 30 10 75 5 75 28 Z" fill="#FFA500" transform="matrix(1.0 0 0 0.030349193390940603 0 195.95340985787755)"/>
				<path d="M 0 0 L 0 20 L 35 20 L 35 100 L 65 100 L 65 20 L 100 20 L 100 0 Z" fill="#228B22" transform="matrix(1.0 0 0 0.22255826966713566 0 173.697582891164)"/>
				<path d="M 0 100 L 33 0 L 66 0 L 100 100 L 75 100 L 66 75 L 33 75 L 25 100 Z M 41 55 L 58 55 L 50 25 Z" fill="#FF0000" transform="matrix(1.0 0 0 0.6676757397013178 0 106.93000892103221)"/>
			</g>
			<g transform="translate(1700 0)">
				<path d="M 0 100 L 33 0 L 66 0 L 100 100 L 75 100 L 66 75 L 33 75 L 25 100 Z M 41 55 L 58 55 L 50 25 Z" fill="#FF0000" transform="matrix(1.0 0 0 0.020799668436235468 0 197.92003315637646)"/>
				<path d="M 100 28 C 100 -13 0 -13 0 50 C 0 113 100 113 100 72 L 75 72 C 75 90 30 90 30 50 C 30 10 75 10 75 28 Z" fill="#0000FF" transform="matrix(1.0 0 0 1.8926932879791714 0 8.650704358459336)"/>
			</g>
			<g transform="translate(1800 0)">
				<path d="M 0 100 L 33 0 L 66 0 L 100 100 L 75 100 L 66 75 L 33 75 L 25 100 Z M 41 55 L 58 55 L 50 25 Z" fill="#FF0000" transform="matrix(1.0 0 0 2.0 0 0.0)"/>
			</g>
			<g transform="translate(1900 0)">
				<path d="M 0 100 L 33 0 L 66 0 L 100 100 L 75 100 L 66 75 L 33 75 L 25 100 Z M 41 55 L 58 55 L 50 25 Z" fill="#FF0000" transform="matrix(1.0 0 0 2.0 0 0.0)"/>
			</g>
			<g transform="translate(2000 0)">
				<path d="M 0 0 L 0 20 L 35 20 L 35 100 L 65 100 L 65 20 L 100 20 L 100 0 Z" fill="#228B22" transform="matrix(1.0 0 0 0.07573791490310366 0 192.42620850968964)"/>
				<path d="M 100 28 C 100 -13 0 -13 0 50 C 0 113 100 113 100 72 L 75 72 C 75 90 30 90 30 50 C 30 10 75 10 75 28 Z" fill="#0000FF" transform="matrix(1.0 0 0 1.6662445797632486 0 25.801750533364782)"/>
			</g>
			<g transform="translate(2100 0)">
				<path d="M 0 0 L 0 20 L 35 20 L 35 100 L 65 100 L 65 20 L 100 20 L 100 0 Z" fill="#228B22" transform="matrix(1.0 0 0 0.017030476315137013 0 198.2969523684863)"/>
				<path d="M 100 28 C 100 -13 0 -13 0 50 C 0 113 100 113 100 72 L 75 72 C 75 90 30 90 30 50 C 30 10 75 10 75 28 Z" fill="#0000FF" transform="matrix(1.0 0 0 0.10217815766736801 0 188.0791366017495)"/>
				<path d="M 0 100 L 33 0 L 66 0 L 100 100 L 75 100 L 66 75 L 33 75 L 25 100 Z M 41 55 L 58 55 L 50 25 Z" fill="#FF0000" transform="matrix(1.0 0 0 1.4475325173640459 0 43.325884865344904)"/>
			</g>
			<g transform="translate(2200 0)">
				<path d="M 0 100 L 33 0 L 66 0 L 100 100 L 75 100 L 66 75 L 33 75 L 25 100 Z M 41 55 L 58 55 L 50 25 Z" fill="#FF0000" transform="matrix(1.0 0 0 0.014759796921663954 0 198.5240203078336)"/>
				<path d="M 100 28 C 100 -13 0 -13 0 50 C 0 113 100 113 100 72 L 75 72 C 75 90 30 90 30 50 C 30 10 75 10 75 28 Z" fill="#0000FF" transform="matrix(1.0 0 0 0.01816594407828047 0 196.70742590000555)"/>
				<path d="M 100 28 C 100 -13 0 -13 0 50 C 0 113 100 113 100 72 L 100 48 L 55 48 L 55 72 L 75 72 C 75 90 30 90 30 50 C 30 10 75 5 75 28 Z" fill="#FFA500" transform="matrix(1.0 0 0 0.03406115820355145 0 193.30131007965042)"/>
				<path d="M 0 0 L 0 20 L 35 20 L 35 100 L 65 100 L 65 20 L 100 20 L 100 0 Z" fill="#228B22" transform="matrix(1.0 0 0 0.03746730536016797 0 189.55457954363362)"/>
			</g>
			<g transform="translate(2300 0)">
				<path d="M 0 0 L 0 20 L 35 20 L 35 100 L 65 100 L 65 20 L 100 20 L 100 0 Z" fill="#228B22" transform="matrix(1.0 0 0 0.03743893908494012 0 196.25610609150598)"/>
				<path d="M 100 28 C 100 -13 0 -13 0 50 C 0 113 100 113 100 72 L 100 48 L 55 48 L 55 72 L 75 72 C 75 90 30 90 30 50 C 30 10 75 5 75 28 Z" fill="#FFA500" transform="matrix(1.0 0 0 0.04991915951376388 0 191.26419014012959)"/>
				<path d="M 0 100 L 33 0 L 66 0 L 100 100 L 75 100 L 66 75 L 33 75 L 25 100 Z M 41 55 L 58 55 L 50 25 Z" fill="#FF0000" transform="matrix(1.0 0 0 0.11231739132199739 0 180.03245100792986)"/>
				<path d="M 100 28 C 100 -13 0 -13 0 50 C 0 113 100 113 100 72 L 75 72 C 75 90 30 90 30 50 C 30 10 75 10 75 28 Z" fill="#0000FF" transform="matrix(1.0 0 0 0.37439168711810944 0 142.5932822961189)"/>
			</g>
			<g transform="translate(2400 0)">
				<path d="M 0 0 L 0 20 L 35 20 L 35 100 L 65 100 L 65 20 L 100 20 L 100 0 Z" fill="#228B22" transform="matrix(1.0 0 0 0.02460101590251885 0 197.5398984097481)"/>
				<path d="M 0 100 L 33 0 L 66 0 L 100 100 L 75 100 L 66 75 L 33 75 L 25 100 Z M 41 55 L 58 55 L 50 25 Z" fill="#FF0000" transform="matrix(1.0 0 0 0.0553519321430088 0 192.00470519544723)"/>
				<path d="M 100 28 C 100 -13 0 -13 0 50 C 0 113 100 113 100 72 L 100 48 L 55 48 L 55 72 L 75 72 C 75 90 30 90 30 50 C 30 10 75 5 75 28 Z" fill="#FFA500" transform="matrix(1.0 0 0 0.0553519321430088 0 186.46951198114635)"/>
				<path d="M 100 28 C 100 -13 0 -13 0 50 C 0 113 100 113 100 72 L 75 72 C 75 90 30 90 30 50 C 30 10 75 10 75 28 Z" fill="#0000FF" transform="matrix(1.0 0 0 0.14760524668473246 0 171.70898731267312)"/>
			</g>
			<g transform="translate(2500 0)">
				<path d="M 100 28 C 100 -13 0 -13 0 50 C 0 113 100 113 100 72 L 75 72 C 75 90 30 90 30 50 C 30 10 75 10 75 28 Z" fill="#0000FF" transform="matrix(1.0 0 0 0.011011748426600167 0 198.89882515733999)"/>
				<path d="M 0 0 L 0 20 L 35 20 L 35 100 L 65 100 L 65 20 L 100 20 L 100 0 Z" fill="#228B22" transform="matrix(1.0 0 0 0.01927053864073432 0 196.97177129326656)"/>
				<path d="M 0 100 L 33 0 L 66 0 L 100 100 L 75 100 L 66 75 L 33 75 L 25 100 Z M 41 55 L 58 55 L 50 25 Z" fill="#FF0000" transform="matrix(1.0 0 0 0.023858774187089715 0 194.58589387455757)"/>
				<path d="M 100 28 C 100 -13 0 -13 0 50 C 0 113 100 113 100 72 L 100 48 L 55 48 L 55 72 L 75 72 C 75 90 30 90 30 50 C 30 10 75 5 75 28 Z" fill="#FFA500" transform="matrix(1.0 0 0 0.030282287067334494 0 191.55766516782413)"/>
			</g>
			<g transform="translate(2600 0)">
				<path d="M 0 0 L 0 20 L 35 20 L 35 100 L 65 100 L 65 20 L 100 20 L 100 0 Z" fill="#228B22" transform="matrix(1.0 0 0 2.0 0 0.0)"/>
			</g>
		</g>
	</g>
</svg>
