<svg baseProfile="full" version="1.1" xmlns="http://www.w3.org/2000/svg" viewBox="0 0 2800 200">
	<g>
		<g transform="translate(0 0)">
			<g transform="translate(0 0)">
				<path d="M 100 28 C 100 -13 0 -13 0 50 C 0 113 100 113 100 72 L 100 48 L 55 48 L 55 72 L 75 72 C 75 90 30 90 30 50 C 30 10 75 5 75 28 Z" fill="#FFA500" transform="matrix(1.0 0 0 0.004817815457786343 0 199.51821845422137)"/>
				<path d="M 0 100 L 33 0 L 66 0 L 100 100 L 75 100 L 66 75 L 33 75 L 25 100 Z M 41 55 L 58 55 L 50 25 Z" fill="#FF0000" transform="matrix(1.0 0 0 1.9704983741317519 0 2.4683810410461717)"/>
			</g>
			<g transform="translate(100 0)">
				<path d="M 100 28 C 100 -13 0 -13 0 50 C 0 113 100 113 100 72 L 100 48 L 55 48 L 55 72 L 75 72 C 75 90 30 90 30 50 C 30 10 75 5 75 28 Z" fill="#FFA500" transform="matrix(1.0 0 0 0.01808734605568937 0 198.19126539443107)"/>
				<path d="M 0 100 L 33 0 L 66 0 L 100 100 L 75 100 L 66 75 L 33 75 L 25 100 Z M 41 55 L 58 55 L 50 25 Z" fill="#FF0000" transform="matrix(1.0 0 0 0.02634462835028937 0 195.55680255940212)"/>
				<path d="M 0 0 L 0 20 L 35 20 L 35 100 L 65 100 L 65 20 L 100 20 L 100 0 Z" fill="#228B22" transform="matrix(1.0 0 0 0.05347561027612741 0 190.2092415317894)"/>
				<path d="M 100 28 C 100 -13 0 -13 0 50 C 0 113 100 113 100 72 L 75 72 C 75 90 30 90 30 50 C 30 10 75 10 75 28 Z" fill="#0000FF" transform="matrix(1.0 0 0 0.06330564769260692 0 183.8786767625287)"/>
			</g>
			<g transform="translate(200 0)">
				<path d="M 0 0 L 0 20 L 35 20 L 35 100 L 65 100 L 65 20 L 100 20 L 100 0 Z" fill="#228B22" transform="matrix(1.0 0 0 0.04160291850739454 0 195.83970814926056)"/>
				<path d="M 0 100 L 33 0 L 66 0 L 100 100 L 75 100 L 66 75 L 33 75 L 25 100 Z M 41 55 L 58 55 L 50 25 Z" fill="#FF0000" transform="matrix(1.0 0 0 0.049692372957770674 0 190.87047085348348)"/>
				<path d="M 100 28 C 100 -13 0 -13 0 50 C 0 113 100 113 100 72 L 75 72 C 75 90 30 90 30 50 C 30 10 75 10 75 28 Z" fill="#0000FF" transform="matrix(1.0 0 0 0.08782836772190486 0 182.087634081293)"/>
				<path d="M 100 28 C 100 -13 0 -13 0 50 C 0 113 100 113 100 72 L 100 48 L 55 48 L 55 72 L 75 72 C 75 90 30 90 30 50 C 30 10 75 5 75 28 Z" fill="#FFA500" transform="matrix(1.0 0 0 0.2946874434347089 0 152.6188897378221)"/>
			</g>
			<g transform="translate(300 0)">
				<path d="M 100 28 C 100 -13 0 -13 0 50 C 0 113 100 113 100 72 L 75 72 C 75 90 30 90 30 50 C 30 10 75 10 75 28 Z" fill="#0000FF" transform="matrix(1.0 0 0 2.0 0 0.0)"/>
			</g>
			<g transform="translate(400 0)">
				<path d="M 0 0 L 0 20 L 35 20 L 35 100 L 65 100 L 65 20 L 100 20 L 100 0 Z" fill="#228B22" transform="matrix(1.0 0 0 0.019662640897473375 0 198.03373591025266)"/>
				<path d="M 100 28 C 100 -13 0 -13 0 50 C 0 113 100 113 100 72 L 75 72 C 75 90 30 90 30 50 C 30 10 75 10 75 28 Z" fill="#0000FF" transform="matrix(1.0 0 0 0.03673819072091801 0 194.35991683816087)"/>
				<path d="M 0 100 L 33 0 L 66 0 L 100 100 L 75 100 L 66 75 L 33 75 L 25 100 Z M 41 55 L 58 55 L 50 25 Z" fill="#FF0000" transform="matrix(1.0 0 0 0.059505513214556 0 188.40936551670526)"/>
				<path d="M 100 28 C 100 -13 0 -13 0 50 C 0 113 100 113 100 72 L 100 48 L 55 48 L 55 72 L 75 72 C 75 90 30 90 30 50 C 30 10 75 5 75 28 Z" fill="#FFA500" transform="matrix(1.0 0 0 0.09624372256329349 0 178.78499326037593)"/>
			</g>
			<g transform="translate(500 0)">
				<path d="M 0 100 L 33 0 L 66 0 L 100 100 L 75 100 L 66 75 L 33 75 L 25 100 Z M 41 55 L 58 55 L 50 25 Z" fill="#FF0000" transform="matrix(1.0 0 0 2.0 0 0.0)"/>
			</g>
			<g transform="translate(600 0)">
				<path d="M 0 0 L 0 20 L 35 20 L 35 100 L 65 100 L 65 20 L 100 20 L 100 0 Z" fill="#228B22" transform="matrix(1.0 0 0 2.0 0 0.0)"/>
			</g>
			<g transform="translate(700 0)">
				<path d="M 0 100 L 33 0 L 66 0 L 100 100 L 75 100 L 66 75 L 33 75 L 25 100 Z M 41 55 L 58 55 L 50 25 Z" fill="#FF0000" transform="matrix(1.0 0 0 2.0 0 0.0)"/>
			</g>
			<g transform="translate(800 0)">
				<path d="M 100 28 C 100 -13 0 -13 0 50 C 0 113 100 113 100 72 L 75 72 C 75 90 30 90 30 50 C 30 10 75 10 75 28 Z" fill="#0000FF" transform="matrix(1.0 0 0 0.036318308235695616 0 196.36816917643043)"/>
				<path d="M 0 100 L 33 0 L 66 0 L 100 100 L 75 100 L 66 75 L 33 75 L 25 100 Z M 41 55 L 58 55 L 50 25 Z" fill="#FF0000" transform="matrix(1.0 0 0 1.824988474269966 0 13.869321749433823)"/>
			</g>
			<g transform="translate(900 0)">
				<path d="M 0 0 L 0 20 L 35 20 L 35 100 L 65 100 L 65 20 L 100 20 L 100 0 Z" fill="#228B22" transform="matrix(1.0 0 0 2.0 0 0.0)"/>
			</g>
			<g transform="translate(1000 0)">
				<path d="M 0 100 L 33 0 L 66 0 L 100 100 L 75 100 L 66 75 L 33 75 L 25 100 Z M 41 55 L 58 55 L 50 25 Z" fill="#FF0000" transform="matrix(1.0 0 0 0.010333311597133885 0 198.96666884028662)"/>
				<path d="M 0 0 L 0 20 L 35 20 L 35 100 L 65 100 L 65 20 L 100 20 L 100 0 Z" fill="#228B22" transform="matrix(1.0 0 0 0.014090879094806814 0 197.55758093080593)"/>
				<path d="M 100 28 C 100 -13 0 -13 0 50 C 0 113 100 113 100 72 L 75 72 C 75 90 30 90 30 50 C 30 10 75 10 75 28 Z" fill="#0000FF" transform="matrix(1.0 0 0 0.0161262152589771 0 195.94495940490822)"/>
				<path d="M 100 28 C 100 -13 0 -13 0 50 C 0 113 100 113 100 72 L 100 48 L 55 48 L 55 72 L 75 72 C 75 90 30 90 30 50 C 30 10 75 5 75 28 Z" fill="#FFA500" transform="matrix(1.0 0 0 0.0236413646583335 0 193.58082293907486)"/>
			</g>
			<g transform="translate(1100 0)">
				<path d="M 100 28 C 100 -13 0 -13 0 50 C 0 113 100 113 100 72 L 100 48 L 55 48 L 55 72 L 75 72 C 75 90 30 90 30 50 C 30 10 75 5 75 28 Z" fill="#FFA500" transform="matrix(1.0 0 0 2.0 0 0.0)"/>
			</g>
			<g transform="translate(1200 0)">
				<path d="M 0 0 L 0 20 L 35 20 L 35 100 L 65 100 L 65 20 L 100 20 L 100 0 Z" fill="#228B22" transform="matrix(1.0 0 0 2.0 0 0.0)"/>
			</g>
			<g transform="translate(1300 0)">
				<path d="M 0 100 L 33 0 L 66 0 L 100 100 L 75 100 L 66 75 L 33 75 L 25 100 Z M 41 55 L 58 55 L 50 25 Z" fill="#FF0000" transform="matrix(1.0 0 0 0.019229861723984564 0 198.07701382760155)"/>
				<path d="M 100 28 C 100 -13 0 -13 0 50 C 0 113 100 113 100 72 L 75 72 C 75 90 30 90 30 50 C 30 10 75 10 75 28 Z" fill="#0000FF" transform="matrix(1.0 0 0 0.04376436275476406 0 193.70057755212514)"/>
				<path d="M 100 28 C 100 -13 0 -13 0 50 C 0 113 100 113 100 72 L 100 48 L 55 48 L 55 72 L 75 72 C 75 90 30 90 30 50 C 30 10 75 5 75 28 Z" fill="#FFA500" transform="matrix(1.0 0 0 0.08156089969654298 0 185.54448758247085)"/>
				<path d="M 0 0 L 0 20 L 35 20 L 35 100 L 65 100 L 65 20 L 100 20 L 100 0 Z" fill="#228B22" transform="matrix(1.0 0 0 0.12731460977884146 0 172.8130266045867)"/>
			</g>
			<g transform="translate(1400 0)">
				<path d="M 0 100 L 33 0 L 66 0 L 100 100 L 75 100 L 66 75 L 33 75 L 25 100 Z M 41 55 L 58 55 L 50 25 Z" fill="#FF0000" transform="matrix(1.0 0 0 2.0 0 0.0)"/>
			</g>
			<g transform="translate(1500 0)">
				<path d="M 100 28 C 100 -13 0 -13 0 50 C 0 113 100 113 100 72 L 75 72 C 75 90 30 90 30 50 C 30 10 75 10 75 28 Z" fill="#0000FF" transform="matrix(1.0 0 0 0.19460313997371168 0 180.53968600262883)"/>
				<path d="M 100 28 C 100 -13 0 -13 0 50 C 0 113 100 113 100 72 L 100 48 L 55 48 L 55 72 L 75 72 C 75 90 30 90 30 50 C 30 10 75 5 75 28 Z" fill="#FFA500" transform="matrix(1.0 0 0 1.230171401106088 0 57.52254589202002)"/>
			</g>
			<g transform="translate(1600 0)">
				<path d="M 100 28 C 100 -13 0 -13 0 50 C 0 113 100 113 100 72 L 75 72 C 75 90 30 90 30 50 C 30 10 75 10 75 28 Z" fill="#0000FF" transform="matrix(1.0 0 0 0.016111898134159218 0 198.38881018658407)"/>
				<path d="M 100 28 C 100 -13 0 -13 0 50 C 0 113 100 113 100 72 L 100 48 L 55 48 L 55 72 L 75 72 C 75 90 30 90 30 50 C 30 10 75 5 75 28 Z" fill="#FFA500" transform="matrix(1.0 0 0 0.05191585484058348 0 193.19722470252572)"/>
				<path d="M 0 0 L 0 20 L 35 20 L 35 100 L 65 100 L 65 20 L 100 20 L 100 0 Z" fill="#228B22" transform="matrix(1.0 0 0 0.17185928721611832 0 176.0112959809139)"/>
				<path d="M 0 100 L 33 0 L 66 0 L 100 100 L 75 100 L 66 75 L 33 75 L 25 100 Z M 41 55 L 58 55 L 50 25 Z" fill="#FF0000" transform="matrix(1.0 0 0 0.49409581952794235 0 126.60171402811966)"/>
			</g>
			<g transform="translate(1700 0)">
				<path d="M 0 100 L 33 0 L 66 0 L 100 100 L 75 100 L 66 75 L 33 75 L 25 100 Z M 41 55 L 58 55 L 50 25 Z" fill="#FF0000" transform="matrix(1.0 0 0 0.009539298439855926 0 199.0460701560144)"/>
				<path d="M 100 28 C 100 -13 0 -13 0 50 C 0 113 100 113 100 72 L 75 72 C 75 90 30 90 30 50 C 30 10 75 10 75 28 Z" fill="#0000FF" transform="matrix(1.0 0 0 1.9459787491286813 0 4.448195243146273)"/>
			</g>
			<g transform="translate(1800 0)">
				<path d="M 0 100 L 33 0 L 66 0 L 100 100 L 75 100 L 66 75 L 33 75 L 25 100 Z M 41 55 L 58 55 L 50 25 Z" fill="#FF0000" transform="matrix(1.0 0 0 2.0 0 0.0)"/>
			</g>
			<g transform="translate(1900 0)">
				<path d="M 0 100 L 33 0 L 66 0 L 100 100 L 75 100 L 66 75 L 33 75 L 25 100 Z M 41 55 L 58 55 L 50 25 Z" fill="#FF0000" transform="matrix(1.0 0 0 2.0 0 0.0)"/>
			</g>
			<g transform="translate(2000 0)">
				<path d="M 0 0 L 0 20 L 35 20 L 35 100 L 65 100 L 65 20 L 100 20 L 100 0 Z" fill="#228B22" transform="matrix(1.0 0 0 0.13165379781310968 0 186.83462021868903)"/>
				<path d="M 100 28 C 100 -13 0 -13 0 50 C 0 113 100 113 100 72 L 75 72 C 75 90 30 90 30 50 C 30 10 75 10 75 28 Z" fill="#0000FF" transform="matrix(1.0 0 0 1.4559374244201015 0 41.24087777667887)"/>
			</g>
			<g transform="translate(2100 0)">
				<path d="M 100 28 C 100 -13 0 -13 0 50 C 0 113 100 113 100 72 L 100 48 L 55 48 L 55 72 L 75 72 C 75 90 30 90 30 50 C 30 10 75 5 75 28 Z" fill="#FFA500" transform="matrix(1.0 0 0 0.0039742819072407735 0 199.60257180927593)"/>
				<path d="M 0 0 L 0 20 L 35 20 L 35 100 L 65 100 L 65 20 L 100 20 L 100 0 Z" fill="#228B22" transform="matrix(1.0 0 0 0.003974444852961916 0 199.20512732397972)"/>
				<path d="M 100 28 C 100 -13 0 -13 0 50 C 0 113 100 113 100 72 L 75 72 C 75 90 30 90 30 50 C 30 10 75 10 75 28 Z" fill="#0000FF" transform="matrix(1.0 0 0 0.0953829287194997 0 189.66683445202978)"/>
				<path d="M 0 100 L 33 0 L 66 0 L 100 100 L 75 100 L 66 75 L 33 75 L 25 100 Z M 41 55 L 58 55 L 50 25 Z" fill="#FF0000" transform="matrix(1.0 0 0 1.5261255559462261 0 37.054278857407155)"/>
			</g>
			<g transform="translate(2200 0)">
				<path d="M 0 100 L 33 0 L 66 0 L 100 100 L 75 100 L 66 75 L 33 75 L 25 100 Z M 41 55 L 58 55 L 50 25 Z" fill="#FF0000" transform="matrix(1.0 0 0 0.012202409739629161 0 198.77975902603708)"/>
				<path d="M 100 28 C 100 -13 0 -13 0 50 C 0 113 100 113 100 72 L 75 72 C 75 90 30 90 30 50 C 30 10 75 10 75 28 Z" fill="#0000FF" transform="matrix(1.0 0 0 0.014914051420123578 0 197.28835388402473)"/>
				<path d="M 100 28 C 100 -13 0 -13 0 50 C 0 113 100 113 100 72 L 100 48 L 55 48 L 55 72 L 75 72 C 75 90 30 90 30 50 C 30 10 75 5 75 28 Z" fill="#FFA500" transform="matrix(1.0 0 0 0.0240174369774038 0 194.88661018628434)"/>
				<path d="M 0 0 L 0 20 L 35 20 L 35 100 L 65 100 L 65 20 L 100 20 L 100 0 Z" fill="#228B22" transform="matrix(1.0 0 0 0.028278616993948492 0 192.0587484868895)"/>
			</g>
			<g transform="translate(2300 0)">
				<path d="M 0 0 L 0 20 L 35 20 L 35 100 L 65 100 L 65 20 L 100 20 L 100 0 Z" fill="#228B22" transform="matrix(1.0 0 0 0.03135180531114138 0 196.86481946888586)"/>
				<path d="M 100 28 C 100 -13 0 -13 0 50 C 0 113 100 113 100 72 L 100 48 L 55 48 L 55 72 L 75 72 C 75 90 30 90 30 50 C 30 10 75 5 75 28 Z" fill="#FFA500" transform="matrix(1.0 0 0 0.05997755574196464 0 190.8670638946894)"/>
				<path d="M 0 100 L 33 0 L 66 0 L 100 100 L 75 100 L 66 75 L 33 75 L 25 100 Z M 41 55 L 58 55 L 50 25 Z" fill="#FF0000" transform="matrix(1.0 0 0 0.10632391151914054 0 180.23467274277533)"/>
				<path d="M 100 28 C 100 -13 0 -13 0 50 C 0 113 100 113 100 72 L 75 72 C 75 90 30 90 30 50 C 30 10 75 10 75 28 Z" fill="#0000FF" transform="matrix(1.0 0 0 0.3612286958580491 0 144.11180315697044)"/>
			</g>
			<g transform="translate(2400 0)">
				<path d="M 0 0 L 0 20 L 35 20 L 35 100 L 65 100 L 65 20 L 100 20 L 100 0 Z" fill="#228B22" transform="matrix(1.0 0 0 0.039244828735895985 0 196.0755171264104)"/>
				<path d="M 100 28 C 100 -13 0 -13 0 50 C 0 113 100 113 100 72 L 100 48 L 55 48 L 55 72 L 75 72 C 75 90 30 90 30 50 C 30 10 75 5 75 28 Z" fill="#FFA500" transform="matrix(1.0 0 0 0.053847491289861785 0 190.69076799742422)"/>
				<path d="M 0 100 L 33 0 L 66 0 L 100 100 L 75 100 L 66 75 L 33 75 L 25 100 Z M 41 55 L 58 55 L 50 25 Z" fill="#FF0000" transform="matrix(1.0 0 0 0.0620615059179066 0 184.48461740563357)"/>
				<path d="M 100 28 C 100 -13 0 -13 0 50 C 0 113 100 113 100 72 L 75 72 C 75 90 30 90 30 50 C 30 10 75 10 75 28 Z" fill="#0000FF" transform="matrix(1.0 0 0 0.21904084459091358 0 162.5805329465422)"/>
			</g>
			<g transform="translate(2500 0)">
				<path d="M 100 28 C 100 -13 0 -13 0 50 C 0 113 100 113 100 72 L 75 72 C 75 90 30 90 30 50 C 30 10 75 10 75 28 Z" fill="#0000FF" transform="matrix(1.0 0 0 0.007729264793732419 0 199.22707352062676)"/>
				<path d="M 0 100 L 33 0 L 66 0 L 100 100 L 75 100 L 66 75 L 33 75 L 25 100 Z M 41 55 L 58 55 L 50 25 Z" fill="#FF0000" transform="matrix(1.0 0 0 0.012391359544335196 0 197.98793756619324)"/>
				<path d="M 0 0 L 0 20 L 35 20 L 35 100 L 65 100 L 65 20 L 100 20 L 100 0 Z" fill="#228B22" transform="matrix(1.0 0 0 0.013372851690885854 0 196.65065239710466)"/>
				<path d="M 100 28 C 100 -13 0 -13 0 50 C 0 113 100 113 100 72 L 100 48 L 55 48 L 55 72 L 75 72 C 75 90 30 90 30 50 C 30 10 75 5 75 28 Z" fill="#FFA500" transform="matrix(1.0 0 0 0.0168080832826314 0 194.96984406884152)"/>
			</g>
			<g transform="translate(2600 0)">
				<path d="M 0 0 L 0 20 L 35 20 L 35 100 L 65 100 L 65 20 L 100 20 L 100 0 Z" fill="#228B22" transform="matrix(1.0 0 0 2.0 0 0.0)"/>
			</g>
			<g transform="translate(2700 0)">
				<path d="M 100 28 C 100 -13 0 -13 0 50 C 0 113 100 113 100 72 L 75 72 C 75 90 30 90 30 50 C 30 10 75 10 75 28 Z" fill="#0000FF" transform="matrix(1.0 0 0 0.017872599121060404 0 198.21274008789396)"/>
				<path d="M 100 28 C 100 -13 0 -13 0 50 C 0 113 100 113 100 72 L 100 48 L 55 48 L 55 72 L 75 72 C 75 90 30 90 30 50 C 30 10 75 5 75 28 Z" fill="#FFA500" transform="matrix(1.0 0 0 0.029787573853079636 0 195.233982702586)"/>
				<path d="M 0 0 L 0 20 L 35 20 L 35 100 L 65 100 L 65 20 L 100 20 L 100 0 Z" fill="#228B22" transform="matrix(1.0 0 0 0.029787573853079636 0 192.25522531727802)"/>
				<path d="M 0 100 L 33 0 L 66 0 L 100 100 L 75 100 L 66 75 L 33 75 L 25 100 Z M 41 55 L 58 55 L 50 25 Z" fill="#FF0000" transform="matrix(1.0 0 0 0.059575284729190825 0 186.29769684435894)"/>
			</g>
		</g>
	</g>
</svg>
